<svg width="191" height="41" viewBox="0 0 191 41" fill="none" xmlns="http://www.w3.org/2000/svg">
<mask id="mask0_97_809" style="mask-type:luminance" maskUnits="userSpaceOnUse" x="0" y="0" width="191" height="41">
<path d="M190.923 0H0V40.939H190.923V0Z" fill="white"/>
</mask>
<g mask="url(#mask0_97_809)">
<mask id="mask1_97_809" style="mask-type:luminance" maskUnits="userSpaceOnUse" x="-1" y="-1" width="192" height="43">
<path d="M190.971 -0.0986328H-0.0744781V41.0902H190.971V-0.0986328Z" fill="white"/>
</mask>
<g mask="url(#mask1_97_809)">
<mask id="mask2_97_809" style="mask-type:luminance" maskUnits="userSpaceOnUse" x="-1" y="-1" width="192" height="43">
<path d="M190.971 -0.0986328H-0.0744781V41.0902H190.971V-0.0986328Z" fill="white"/>
</mask>
<g mask="url(#mask2_97_809)">
<mask id="mask3_97_809" style="mask-type:luminance" maskUnits="userSpaceOnUse" x="-1" y="-1" width="193" height="43">
<path d="M191.133 -0.25647H-0.236923V41.248H191.133V-0.25647Z" fill="white"/>
</mask>
<g mask="url(#mask3_97_809)">
<path d="M51.1864 24.0465H54.828C54.6791 25.4208 53.9277 26.7425 52.5604 28.0115C51.1322 29.3201 49.2708 29.9842 46.9964 29.9842C44.4581 29.9842 42.3733 29.1557 40.7487 27.4921C40.1328 26.8477 39.5845 26.0652 39.1174 25.1381C38.5624 24.0202 38.2916 22.6986 38.2916 21.1993C38.2916 18.5691 39.07 16.3729 40.6337 14.6041C42.1634 12.8616 44.2618 11.9937 46.9287 11.9937C49.1557 11.9937 50.9088 12.4934 52.1746 13.4863C53.5893 14.591 54.4151 15.9784 54.6588 17.6354L51.0713 17.7078C50.5027 15.7877 49.1625 14.8343 47.0438 14.8343C45.5005 14.8343 44.2618 15.4326 43.3277 16.6425C42.3868 17.8721 41.913 19.4437 41.913 21.344C41.913 23.0734 42.4545 24.4937 43.5443 25.6115C44.2279 26.3085 45.0334 26.7359 45.9743 26.8871C46.9152 27.0384 47.7139 27.0318 48.3908 26.8411C49.0677 26.6504 49.5618 26.4137 49.8935 26.131C50.5907 25.4997 51.0239 24.8027 51.1864 24.04" fill="white"/>
</g>
</g>
</g>
<mask id="mask4_97_809" style="mask-type:luminance" maskUnits="userSpaceOnUse" x="-1" y="-1" width="192" height="43">
<path d="M190.971 -0.0986328H-0.0744781V41.0902H190.971V-0.0986328Z" fill="white"/>
</mask>
<g mask="url(#mask4_97_809)">
<mask id="mask5_97_809" style="mask-type:luminance" maskUnits="userSpaceOnUse" x="-1" y="-1" width="192" height="43">
<path d="M190.971 -0.0986328H-0.0744781V41.0902H190.971V-0.0986328Z" fill="white"/>
</mask>
<g mask="url(#mask5_97_809)">
<mask id="mask6_97_809" style="mask-type:luminance" maskUnits="userSpaceOnUse" x="-1" y="-1" width="193" height="43">
<path d="M191.133 -0.25647H-0.236923V41.248H191.133V-0.25647Z" fill="white"/>
</mask>
<g mask="url(#mask6_97_809)">
<path d="M51.1864 24.0465H54.828C54.6791 25.4208 53.9277 26.7425 52.5604 28.0115C51.1322 29.3201 49.2708 29.9842 46.9964 29.9842C44.4581 29.9842 42.3733 29.1557 40.7487 27.4921C40.1328 26.8477 39.5845 26.0652 39.1174 25.1381C38.5624 24.0202 38.2916 22.6986 38.2916 21.1993C38.2916 18.5691 39.07 16.3729 40.6337 14.6041C42.1634 12.8616 44.2618 11.9937 46.9287 11.9937C49.1557 11.9937 50.9088 12.4934 52.1746 13.4863C53.5893 14.591 54.4151 15.9784 54.6588 17.6354L51.0713 17.7078C50.5027 15.7877 49.1625 14.8343 47.0438 14.8343C45.5005 14.8343 44.2618 15.4326 43.3277 16.6425C42.3868 17.8721 41.913 19.4437 41.913 21.344C41.913 23.0734 42.4545 24.4937 43.5443 25.6115C44.2279 26.3085 45.0334 26.7359 45.9743 26.8871C46.9152 27.0384 47.7139 27.0318 48.3908 26.8411C49.0677 26.6504 49.5618 26.4137 49.8935 26.131C50.5907 25.4997 51.0239 24.8027 51.1864 24.04" fill="white"/>
</g>
</g>
</g>
</g>
<mask id="mask7_97_809" style="mask-type:luminance" maskUnits="userSpaceOnUse" x="0" y="0" width="191" height="41">
<path d="M190.923 0H0V40.939H190.923V0Z" fill="white"/>
</mask>
<g mask="url(#mask7_97_809)">
<mask id="mask8_97_809" style="mask-type:luminance" maskUnits="userSpaceOnUse" x="-1" y="-1" width="192" height="43">
<path d="M190.971 -0.0986328H-0.0744781V41.0902H190.971V-0.0986328Z" fill="white"/>
</mask>
<g mask="url(#mask8_97_809)">
<mask id="mask9_97_809" style="mask-type:luminance" maskUnits="userSpaceOnUse" x="-1" y="-1" width="192" height="43">
<path d="M190.971 -0.0986328H-0.0744781V41.0902H190.971V-0.0986328Z" fill="white"/>
</mask>
<g mask="url(#mask9_97_809)">
<mask id="mask10_97_809" style="mask-type:luminance" maskUnits="userSpaceOnUse" x="-1" y="-1" width="193" height="43">
<path d="M191.133 -0.25647H-0.236923V41.248H191.133V-0.25647Z" fill="white"/>
</mask>
<g mask="url(#mask10_97_809)">
<path d="M63.174 16.7609C65.1709 16.7609 66.7751 17.3658 67.9596 18.5889C69.2119 19.8711 69.8346 21.5018 69.8346 23.481C69.8346 25.3485 69.1916 26.92 67.9055 28.2088C66.7006 29.4121 65.1302 30.0171 63.1943 30.0171C61.2246 30.0171 59.6474 29.4187 58.4561 28.2088C57.2039 26.9134 56.5811 25.3024 56.5811 23.389C56.5811 21.4755 57.2039 19.8711 58.4561 18.5691C59.6407 17.3658 61.2111 16.7609 63.1673 16.7609M65.5161 26.3611C66.1185 25.6115 66.4163 24.6317 66.4163 23.4284C66.4163 21.5084 65.7462 20.1867 64.406 19.4502C62.8694 19.036 61.6917 19.3582 60.8591 20.4103C60.2634 21.1664 59.9656 22.1593 59.9656 23.3758C59.9656 24.5923 60.2634 25.5852 60.8591 26.3414C61.4547 27.0975 62.2264 27.4789 63.1876 27.4789C64.1285 27.4789 64.9001 27.1041 65.5025 26.3545" fill="white"/>
</g>
</g>
</g>
<mask id="mask11_97_809" style="mask-type:luminance" maskUnits="userSpaceOnUse" x="-1" y="-1" width="192" height="43">
<path d="M190.971 -0.0986328H-0.0744781V41.0902H190.971V-0.0986328Z" fill="white"/>
</mask>
<g mask="url(#mask11_97_809)">
<mask id="mask12_97_809" style="mask-type:luminance" maskUnits="userSpaceOnUse" x="-1" y="-1" width="192" height="43">
<path d="M190.971 -0.0986328H-0.0744781V41.0902H190.971V-0.0986328Z" fill="white"/>
</mask>
<g mask="url(#mask12_97_809)">
<mask id="mask13_97_809" style="mask-type:luminance" maskUnits="userSpaceOnUse" x="-1" y="-1" width="193" height="43">
<path d="M191.133 -0.25647H-0.236923V41.248H191.133V-0.25647Z" fill="white"/>
</mask>
<g mask="url(#mask13_97_809)">
<path d="M63.174 16.7609C65.1709 16.7609 66.7751 17.3658 67.9596 18.5889C69.2119 19.8711 69.8346 21.5018 69.8346 23.481C69.8346 25.3485 69.1916 26.92 67.9055 28.2088C66.7006 29.4121 65.1302 30.0171 63.1943 30.0171C61.2246 30.0171 59.6474 29.4187 58.4561 28.2088C57.2039 26.9134 56.5811 25.3024 56.5811 23.389C56.5811 21.4755 57.2039 19.8711 58.4561 18.5691C59.6407 17.3658 61.2111 16.7609 63.1673 16.7609M65.5161 26.3611C66.1185 25.6115 66.4163 24.6317 66.4163 23.4284C66.4163 21.5084 65.7462 20.1867 64.406 19.4502C62.8694 19.036 61.6917 19.3582 60.8591 20.4103C60.2634 21.1664 59.9656 22.1593 59.9656 23.3758C59.9656 24.5923 60.2634 25.5852 60.8591 26.3414C61.4547 27.0975 62.2264 27.4789 63.1876 27.4789C64.1285 27.4789 64.9001 27.1041 65.5025 26.3545" fill="white"/>
</g>
</g>
</g>
</g>
<mask id="mask14_97_809" style="mask-type:luminance" maskUnits="userSpaceOnUse" x="0" y="0" width="191" height="41">
<path d="M190.923 0H0V40.939H190.923V0Z" fill="white"/>
</mask>
<g mask="url(#mask14_97_809)">
<mask id="mask15_97_809" style="mask-type:luminance" maskUnits="userSpaceOnUse" x="-1" y="-1" width="192" height="43">
<path d="M190.971 -0.0986328H-0.0744781V41.0902H190.971V-0.0986328Z" fill="white"/>
</mask>
<g mask="url(#mask15_97_809)">
<mask id="mask16_97_809" style="mask-type:luminance" maskUnits="userSpaceOnUse" x="-1" y="-1" width="192" height="43">
<path d="M190.971 -0.0986328H-0.0744781V41.0902H190.971V-0.0986328Z" fill="white"/>
</mask>
<g mask="url(#mask16_97_809)">
<mask id="mask17_97_809" style="mask-type:luminance" maskUnits="userSpaceOnUse" x="-1" y="-1" width="193" height="43">
<path d="M191.133 -0.25647H-0.236923V41.248H191.133V-0.25647Z" fill="white"/>
</mask>
<g mask="url(#mask17_97_809)">
<path d="M82.33 18.0627C83.0949 18.8649 83.4739 20.0222 83.4739 21.5016V29.5566H80.076V22.0737C80.076 21.3175 79.8729 20.6929 79.4668 20.1997C79.0606 19.7131 78.4988 19.4632 77.7813 19.4632C77.1315 19.4632 76.502 19.7328 75.9063 20.2655C75.419 20.706 75.1753 21.449 75.1753 22.5011V29.55H71.7773V17.05H75.1753V18.5953C75.9876 17.267 77.2872 16.6029 79.0809 16.6029C80.3196 16.6029 81.3959 17.0895 82.33 18.0692" fill="white"/>
</g>
</g>
</g>
<mask id="mask18_97_809" style="mask-type:luminance" maskUnits="userSpaceOnUse" x="-1" y="-1" width="192" height="43">
<path d="M190.971 -0.0986328H-0.0744781V41.0902H190.971V-0.0986328Z" fill="white"/>
</mask>
<g mask="url(#mask18_97_809)">
<mask id="mask19_97_809" style="mask-type:luminance" maskUnits="userSpaceOnUse" x="-1" y="-1" width="192" height="43">
<path d="M190.971 -0.0986328H-0.0744781V41.0902H190.971V-0.0986328Z" fill="white"/>
</mask>
<g mask="url(#mask19_97_809)">
<mask id="mask20_97_809" style="mask-type:luminance" maskUnits="userSpaceOnUse" x="-1" y="-1" width="193" height="43">
<path d="M191.133 -0.25647H-0.236923V41.248H191.133V-0.25647Z" fill="white"/>
</mask>
<g mask="url(#mask20_97_809)">
<path d="M82.33 18.0627C83.0949 18.8649 83.4739 20.0222 83.4739 21.5016V29.5566H80.076V22.0737C80.076 21.3175 79.8729 20.6929 79.4668 20.1997C79.0606 19.7131 78.4988 19.4632 77.7813 19.4632C77.1315 19.4632 76.502 19.7328 75.9063 20.2655C75.419 20.706 75.1753 21.449 75.1753 22.5011V29.55H71.7773V17.05H75.1753V18.5953C75.9876 17.267 77.2872 16.6029 79.0809 16.6029C80.3196 16.6029 81.3959 17.0895 82.33 18.0692" fill="white"/>
</g>
</g>
</g>
</g>
<mask id="mask21_97_809" style="mask-type:luminance" maskUnits="userSpaceOnUse" x="0" y="0" width="191" height="41">
<path d="M190.923 0H0V40.939H190.923V0Z" fill="white"/>
</mask>
<g mask="url(#mask21_97_809)">
<mask id="mask22_97_809" style="mask-type:luminance" maskUnits="userSpaceOnUse" x="-1" y="-1" width="192" height="43">
<path d="M190.971 -0.0986328H-0.0744781V41.0902H190.971V-0.0986328Z" fill="white"/>
</mask>
<g mask="url(#mask22_97_809)">
<mask id="mask23_97_809" style="mask-type:luminance" maskUnits="userSpaceOnUse" x="-1" y="-1" width="192" height="43">
<path d="M190.971 -0.0986328H-0.0744781V41.0902H190.971V-0.0986328Z" fill="white"/>
</mask>
<g mask="url(#mask23_97_809)">
<mask id="mask24_97_809" style="mask-type:luminance" maskUnits="userSpaceOnUse" x="-1" y="-1" width="193" height="43">
<path d="M191.133 -0.25647H-0.236923V41.248H191.133V-0.25647Z" fill="white"/>
</mask>
<g mask="url(#mask24_97_809)">
<path d="M91.9689 27.2223C93.3497 27.2223 94.25 26.716 94.6764 25.71L98.1489 25.756C97.7427 27.0382 96.944 28.0706 95.7595 28.8399C94.7035 29.5369 93.4174 29.8854 91.9012 29.8854C89.9179 29.8854 88.334 29.3002 87.163 28.1232C86.0123 26.9527 85.4301 25.4009 85.4301 23.4677C85.4301 21.2847 86.0461 19.6013 87.2848 18.4112C88.6183 17.1487 90.1277 16.5109 91.8267 16.5109C93.1602 16.5109 94.3245 16.8199 95.3195 17.4314C96.477 18.1416 97.2689 19.2463 97.7089 20.7323C98.0203 21.7778 98.1692 22.7379 98.1692 23.6058C98.1692 23.7768 98.1624 23.9609 98.1421 24.1516H88.8214C88.8214 25.322 89.2207 26.1834 90.0127 26.716C90.5339 27.0448 91.1837 27.2158 91.9621 27.2158M91.847 19.0819C90.1074 19.0819 89.1192 19.9959 88.8687 21.837H94.7306C94.6494 20.9559 94.3651 20.2655 93.8777 19.792C93.3903 19.3186 92.7135 19.0819 91.847 19.0819Z" fill="white"/>
</g>
</g>
</g>
<mask id="mask25_97_809" style="mask-type:luminance" maskUnits="userSpaceOnUse" x="-1" y="-1" width="192" height="43">
<path d="M190.971 -0.0986328H-0.0744781V41.0902H190.971V-0.0986328Z" fill="white"/>
</mask>
<g mask="url(#mask25_97_809)">
<mask id="mask26_97_809" style="mask-type:luminance" maskUnits="userSpaceOnUse" x="-1" y="-1" width="192" height="43">
<path d="M190.971 -0.0986328H-0.0744781V41.0902H190.971V-0.0986328Z" fill="white"/>
</mask>
<g mask="url(#mask26_97_809)">
<mask id="mask27_97_809" style="mask-type:luminance" maskUnits="userSpaceOnUse" x="-1" y="-1" width="193" height="43">
<path d="M191.133 -0.25647H-0.236923V41.248H191.133V-0.25647Z" fill="white"/>
</mask>
<g mask="url(#mask27_97_809)">
<path d="M91.9689 27.2223C93.3497 27.2223 94.25 26.716 94.6764 25.71L98.1489 25.756C97.7427 27.0382 96.944 28.0706 95.7595 28.8399C94.7035 29.5369 93.4174 29.8854 91.9012 29.8854C89.9179 29.8854 88.334 29.3002 87.163 28.1232C86.0123 26.9527 85.4301 25.4009 85.4301 23.4677C85.4301 21.2847 86.0461 19.6013 87.2848 18.4112C88.6183 17.1487 90.1277 16.5109 91.8267 16.5109C93.1602 16.5109 94.3245 16.8199 95.3195 17.4314C96.477 18.1416 97.2689 19.2463 97.7089 20.7323C98.0203 21.7778 98.1692 22.7379 98.1692 23.6058C98.1692 23.7768 98.1624 23.9609 98.1421 24.1516H88.8214C88.8214 25.322 89.2207 26.1834 90.0127 26.716C90.5339 27.0448 91.1837 27.2158 91.9621 27.2158M91.847 19.0819C90.1074 19.0819 89.1192 19.9959 88.8687 21.837H94.7306C94.6494 20.9559 94.3651 20.2655 93.8777 19.792C93.3903 19.3186 92.7135 19.0819 91.847 19.0819Z" fill="white"/>
</g>
</g>
</g>
</g>
<mask id="mask28_97_809" style="mask-type:luminance" maskUnits="userSpaceOnUse" x="0" y="0" width="191" height="41">
<path d="M190.923 0H0V40.939H190.923V0Z" fill="white"/>
</mask>
<g mask="url(#mask28_97_809)">
<mask id="mask29_97_809" style="mask-type:luminance" maskUnits="userSpaceOnUse" x="-1" y="-1" width="192" height="43">
<path d="M190.971 -0.0986328H-0.0744781V41.0902H190.971V-0.0986328Z" fill="white"/>
</mask>
<g mask="url(#mask29_97_809)">
<mask id="mask30_97_809" style="mask-type:luminance" maskUnits="userSpaceOnUse" x="-1" y="-1" width="192" height="43">
<path d="M190.971 -0.0986328H-0.0744781V41.0902H190.971V-0.0986328Z" fill="white"/>
</mask>
<g mask="url(#mask30_97_809)">
<mask id="mask31_97_809" style="mask-type:luminance" maskUnits="userSpaceOnUse" x="-1" y="-1" width="193" height="43">
<path d="M191.133 -0.25647H-0.236923V41.248H191.133V-0.25647Z" fill="white"/>
</mask>
<g mask="url(#mask31_97_809)">
<path d="M116.648 29.675C115.396 29.675 114.387 29.3199 113.623 28.6229C112.858 27.9259 112.479 26.9856 112.479 25.8349C112.479 23.5729 113.819 22.225 116.506 21.8041L117.941 21.5674C117.975 21.5674 118.137 21.5477 118.442 21.5082C118.747 21.4688 118.936 21.4359 119.024 21.4162C119.112 21.3964 119.281 21.357 119.525 21.311C119.769 21.2649 119.938 21.2058 120.039 21.1466C120.141 21.0874 120.256 21.0019 120.405 20.8967C120.554 20.7915 120.649 20.6731 120.696 20.5416C120.743 20.4101 120.771 20.2523 120.771 20.0814C120.771 19.2265 120.087 18.7991 118.72 18.7991C117.84 18.7991 117.224 18.9241 116.865 19.1805C116.506 19.437 116.29 19.8907 116.208 20.5548H112.79C113 17.5958 114.949 16.1163 118.652 16.1163C122.395 16.1163 124.263 17.4249 124.263 20.055V27.1763C124.263 27.7615 124.534 28.281 125.069 28.7478V29.7013H121.21C120.933 29.3857 120.798 28.4059 120.798 27.8667C119.545 29.0832 118.164 29.6947 116.648 29.6947M121.556 12.0856H123.167C123.072 14.0977 122.266 15.0971 120.75 15.0971C120.344 15.0971 119.884 15.0051 119.363 14.8144L117.555 14.1963C117.244 14.0977 116.993 14.0516 116.797 14.0516C116.486 14.0516 116.256 14.1371 116.1 14.3015C115.944 14.4659 115.836 14.7421 115.768 15.1169H114.191C114.239 14.2029 114.475 13.4796 114.895 12.9535C115.315 12.4275 115.877 12.171 116.581 12.171C116.905 12.171 117.379 12.2762 117.995 12.4801L119.803 13.0719C120.033 13.1639 120.317 13.2165 120.655 13.2165C121.19 13.2165 121.495 12.8352 121.556 12.079M120.777 23.9872V23.0864C120.452 23.231 119.958 23.3625 119.288 23.4875L118.07 23.7044C117.325 23.8491 116.797 24.0529 116.499 24.3225C116.202 24.5921 116.046 24.9669 116.046 25.4601C116.046 25.9335 116.215 26.3083 116.56 26.5845C116.905 26.8607 117.373 26.9988 117.975 26.9988C118.868 26.9988 119.559 26.7357 120.046 26.2163C120.534 25.6968 120.777 24.9538 120.777 23.9872Z" fill="white"/>
</g>
</g>
</g>
<mask id="mask32_97_809" style="mask-type:luminance" maskUnits="userSpaceOnUse" x="-1" y="-1" width="192" height="43">
<path d="M190.971 -0.0986328H-0.0744781V41.0902H190.971V-0.0986328Z" fill="white"/>
</mask>
<g mask="url(#mask32_97_809)">
<mask id="mask33_97_809" style="mask-type:luminance" maskUnits="userSpaceOnUse" x="-1" y="-1" width="192" height="43">
<path d="M190.971 -0.0986328H-0.0744781V41.0902H190.971V-0.0986328Z" fill="white"/>
</mask>
<g mask="url(#mask33_97_809)">
<mask id="mask34_97_809" style="mask-type:luminance" maskUnits="userSpaceOnUse" x="-1" y="-1" width="193" height="43">
<path d="M191.133 -0.25647H-0.236923V41.248H191.133V-0.25647Z" fill="white"/>
</mask>
<g mask="url(#mask34_97_809)">
<path d="M116.648 29.675C115.396 29.675 114.387 29.3199 113.623 28.6229C112.858 27.9259 112.479 26.9856 112.479 25.8349C112.479 23.5729 113.819 22.225 116.506 21.8041L117.941 21.5674C117.975 21.5674 118.137 21.5477 118.442 21.5082C118.747 21.4688 118.936 21.4359 119.024 21.4162C119.112 21.3964 119.281 21.357 119.525 21.311C119.769 21.2649 119.938 21.2058 120.039 21.1466C120.141 21.0874 120.256 21.0019 120.405 20.8967C120.554 20.7915 120.649 20.6731 120.696 20.5416C120.743 20.4101 120.771 20.2523 120.771 20.0814C120.771 19.2265 120.087 18.7991 118.72 18.7991C117.84 18.7991 117.224 18.9241 116.865 19.1805C116.506 19.437 116.29 19.8907 116.208 20.5548H112.79C113 17.5958 114.949 16.1163 118.652 16.1163C122.395 16.1163 124.263 17.4249 124.263 20.055V27.1763C124.263 27.7615 124.534 28.281 125.069 28.7478V29.7013H121.21C120.933 29.3857 120.798 28.4059 120.798 27.8667C119.545 29.0832 118.164 29.6947 116.648 29.6947M121.556 12.0856H123.167C123.072 14.0977 122.266 15.0971 120.75 15.0971C120.344 15.0971 119.884 15.0051 119.363 14.8144L117.555 14.1963C117.244 14.0977 116.993 14.0516 116.797 14.0516C116.486 14.0516 116.256 14.1371 116.1 14.3015C115.944 14.4659 115.836 14.7421 115.768 15.1169H114.191C114.239 14.2029 114.475 13.4796 114.895 12.9535C115.315 12.4275 115.877 12.171 116.581 12.171C116.905 12.171 117.379 12.2762 117.995 12.4801L119.803 13.0719C120.033 13.1639 120.317 13.2165 120.655 13.2165C121.19 13.2165 121.495 12.8352 121.556 12.079M120.777 23.9872V23.0864C120.452 23.231 119.958 23.3625 119.288 23.4875L118.07 23.7044C117.325 23.8491 116.797 24.0529 116.499 24.3225C116.202 24.5921 116.046 24.9669 116.046 25.4601C116.046 25.9335 116.215 26.3083 116.56 26.5845C116.905 26.8607 117.373 26.9988 117.975 26.9988C118.868 26.9988 119.559 26.7357 120.046 26.2163C120.534 25.6968 120.777 24.9538 120.777 23.9872Z" fill="white"/>
</g>
</g>
</g>
</g>
<mask id="mask35_97_809" style="mask-type:luminance" maskUnits="userSpaceOnUse" x="0" y="0" width="191" height="41">
<path d="M190.923 0H0V40.939H190.923V0Z" fill="white"/>
</mask>
<g mask="url(#mask35_97_809)">
<mask id="mask36_97_809" style="mask-type:luminance" maskUnits="userSpaceOnUse" x="-1" y="-1" width="192" height="43">
<path d="M190.971 -0.0986328H-0.0744781V41.0902H190.971V-0.0986328Z" fill="white"/>
</mask>
<g mask="url(#mask36_97_809)">
<mask id="mask37_97_809" style="mask-type:luminance" maskUnits="userSpaceOnUse" x="-1" y="-1" width="192" height="43">
<path d="M190.971 -0.0986328H-0.0744781V41.0902H190.971V-0.0986328Z" fill="white"/>
</mask>
<g mask="url(#mask37_97_809)">
<mask id="mask38_97_809" style="mask-type:luminance" maskUnits="userSpaceOnUse" x="-1" y="-1" width="193" height="43">
<path d="M191.133 -0.25647H-0.236923V41.248H191.133V-0.25647Z" fill="white"/>
</mask>
<g mask="url(#mask38_97_809)">
<path d="M132.684 16.7609C134.681 16.7609 136.285 17.3658 137.469 18.5889C138.722 19.8711 139.344 21.5018 139.344 23.481C139.344 25.3485 138.701 26.92 137.415 28.2088C136.21 29.4121 134.64 30.0171 132.704 30.0171C130.734 30.0171 129.15 29.4187 127.966 28.2088C126.714 26.9134 126.091 25.3024 126.091 23.389C126.091 21.4755 126.714 19.8711 127.966 18.5691C129.15 17.3658 130.721 16.7609 132.677 16.7609M135.026 26.3611C135.628 25.6115 135.926 24.6317 135.926 23.4284C135.926 21.5084 135.256 20.1867 133.916 19.4502C132.379 19.036 131.201 19.3582 130.369 20.4103C129.773 21.1664 129.475 22.1593 129.475 23.3758C129.475 24.5923 129.773 25.5852 130.369 26.3414C130.964 27.0975 131.736 27.4789 132.697 27.4789C133.638 27.4789 134.41 27.1041 135.012 26.3545" fill="white"/>
</g>
</g>
</g>
<mask id="mask39_97_809" style="mask-type:luminance" maskUnits="userSpaceOnUse" x="-1" y="-1" width="192" height="43">
<path d="M190.971 -0.0986328H-0.0744781V41.0902H190.971V-0.0986328Z" fill="white"/>
</mask>
<g mask="url(#mask39_97_809)">
<mask id="mask40_97_809" style="mask-type:luminance" maskUnits="userSpaceOnUse" x="-1" y="-1" width="192" height="43">
<path d="M190.971 -0.0986328H-0.0744781V41.0902H190.971V-0.0986328Z" fill="white"/>
</mask>
<g mask="url(#mask40_97_809)">
<mask id="mask41_97_809" style="mask-type:luminance" maskUnits="userSpaceOnUse" x="-1" y="-1" width="193" height="43">
<path d="M191.133 -0.25647H-0.236923V41.248H191.133V-0.25647Z" fill="white"/>
</mask>
<g mask="url(#mask41_97_809)">
<path d="M132.684 16.7609C134.681 16.7609 136.285 17.3658 137.469 18.5889C138.722 19.8711 139.344 21.5018 139.344 23.481C139.344 25.3485 138.701 26.92 137.415 28.2088C136.21 29.4121 134.64 30.0171 132.704 30.0171C130.734 30.0171 129.15 29.4187 127.966 28.2088C126.714 26.9134 126.091 25.3024 126.091 23.389C126.091 21.4755 126.714 19.8711 127.966 18.5691C129.15 17.3658 130.721 16.7609 132.677 16.7609M135.026 26.3611C135.628 25.6115 135.926 24.6317 135.926 23.4284C135.926 21.5084 135.256 20.1867 133.916 19.4502C132.379 19.036 131.201 19.3582 130.369 20.4103C129.773 21.1664 129.475 22.1593 129.475 23.3758C129.475 24.5923 129.773 25.5852 130.369 26.3414C130.964 27.0975 131.736 27.4789 132.697 27.4789C133.638 27.4789 134.41 27.1041 135.012 26.3545" fill="white"/>
</g>
</g>
</g>
</g>
<mask id="mask42_97_809" style="mask-type:luminance" maskUnits="userSpaceOnUse" x="0" y="0" width="191" height="41">
<path d="M190.923 0H0V40.939H190.923V0Z" fill="white"/>
</mask>
<g mask="url(#mask42_97_809)">
<mask id="mask43_97_809" style="mask-type:luminance" maskUnits="userSpaceOnUse" x="-1" y="-1" width="192" height="43">
<path d="M190.971 -0.0986328H-0.0744781V41.0902H190.971V-0.0986328Z" fill="white"/>
</mask>
<g mask="url(#mask43_97_809)">
<mask id="mask44_97_809" style="mask-type:luminance" maskUnits="userSpaceOnUse" x="-1" y="-1" width="192" height="43">
<path d="M190.971 -0.0986328H-0.0744781V41.0902H190.971V-0.0986328Z" fill="white"/>
</mask>
<g mask="url(#mask44_97_809)">
<mask id="mask45_97_809" style="mask-type:luminance" maskUnits="userSpaceOnUse" x="-1" y="-1" width="193" height="43">
<path d="M191.133 -0.25647H-0.236923V41.248H191.133V-0.25647Z" fill="white"/>
</mask>
<g mask="url(#mask45_97_809)">
<path d="M152.07 24.3555H145.233L143.358 29.5567H140.969L147.291 12.25H150.195L156.415 29.5567H153.904L152.07 24.3555ZM151.434 22.5012L148.706 14.6172L145.802 22.5012H151.434Z" fill="white"/>
</g>
</g>
</g>
<mask id="mask46_97_809" style="mask-type:luminance" maskUnits="userSpaceOnUse" x="-1" y="-1" width="192" height="43">
<path d="M190.971 -0.0986328H-0.0744781V41.0902H190.971V-0.0986328Z" fill="white"/>
</mask>
<g mask="url(#mask46_97_809)">
<mask id="mask47_97_809" style="mask-type:luminance" maskUnits="userSpaceOnUse" x="-1" y="-1" width="192" height="43">
<path d="M190.971 -0.0986328H-0.0744781V41.0902H190.971V-0.0986328Z" fill="white"/>
</mask>
<g mask="url(#mask47_97_809)">
<mask id="mask48_97_809" style="mask-type:luminance" maskUnits="userSpaceOnUse" x="-1" y="-1" width="193" height="43">
<path d="M191.133 -0.25647H-0.236923V41.248H191.133V-0.25647Z" fill="white"/>
</mask>
<g mask="url(#mask48_97_809)">
<path d="M152.07 24.3555H145.233L143.358 29.5567H140.969L147.291 12.25H150.195L156.415 29.5567H153.904L152.07 24.3555ZM151.434 22.5012L148.706 14.6172L145.802 22.5012H151.434Z" fill="white"/>
</g>
</g>
</g>
</g>
<mask id="mask49_97_809" style="mask-type:luminance" maskUnits="userSpaceOnUse" x="0" y="0" width="191" height="41">
<path d="M190.923 0H0V40.939H190.923V0Z" fill="white"/>
</mask>
<g mask="url(#mask49_97_809)">
<mask id="mask50_97_809" style="mask-type:luminance" maskUnits="userSpaceOnUse" x="-1" y="-1" width="192" height="43">
<path d="M190.971 -0.0986328H-0.0744781V41.0902H190.971V-0.0986328Z" fill="white"/>
</mask>
<g mask="url(#mask50_97_809)">
<mask id="mask51_97_809" style="mask-type:luminance" maskUnits="userSpaceOnUse" x="-1" y="-1" width="192" height="43">
<path d="M190.971 -0.0986328H-0.0744781V41.0902H190.971V-0.0986328Z" fill="white"/>
</mask>
<g mask="url(#mask51_97_809)">
<mask id="mask52_97_809" style="mask-type:luminance" maskUnits="userSpaceOnUse" x="-1" y="-1" width="193" height="43">
<path d="M191.133 -0.25647H-0.236923V41.248H191.133V-0.25647Z" fill="white"/>
</mask>
<g mask="url(#mask52_97_809)">
<path d="M181.873 29.1753H179.998V27.4854C179.382 28.2876 178.732 28.8663 178.062 29.2082C177.392 29.5435 176.566 29.7145 175.585 29.7145C174.461 29.7145 173.446 29.3068 172.532 28.4849C171.767 27.8076 171.388 26.8147 171.388 25.5193V17.0698H173.459V25.4996C173.459 26.2098 173.703 26.7884 174.191 27.2355C174.759 27.7221 175.422 27.972 176.187 27.972C177.325 27.972 178.204 27.6169 178.82 26.9068C179.47 26.1637 179.795 25.1708 179.795 23.9412V17.0698H181.866L181.873 29.1753Z" fill="white"/>
</g>
</g>
</g>
<mask id="mask53_97_809" style="mask-type:luminance" maskUnits="userSpaceOnUse" x="-1" y="-1" width="192" height="43">
<path d="M190.971 -0.0986328H-0.0744781V41.0902H190.971V-0.0986328Z" fill="white"/>
</mask>
<g mask="url(#mask53_97_809)">
<mask id="mask54_97_809" style="mask-type:luminance" maskUnits="userSpaceOnUse" x="-1" y="-1" width="192" height="43">
<path d="M190.971 -0.0986328H-0.0744781V41.0902H190.971V-0.0986328Z" fill="white"/>
</mask>
<g mask="url(#mask54_97_809)">
<mask id="mask55_97_809" style="mask-type:luminance" maskUnits="userSpaceOnUse" x="-1" y="-1" width="193" height="43">
<path d="M191.133 -0.25647H-0.236923V41.248H191.133V-0.25647Z" fill="white"/>
</mask>
<g mask="url(#mask55_97_809)">
<path d="M181.873 29.1753H179.998V27.4854C179.382 28.2876 178.732 28.8663 178.062 29.2082C177.392 29.5435 176.566 29.7145 175.585 29.7145C174.461 29.7145 173.446 29.3068 172.532 28.4849C171.767 27.8076 171.388 26.8147 171.388 25.5193V17.0698H173.459V25.4996C173.459 26.2098 173.703 26.7884 174.191 27.2355C174.759 27.7221 175.422 27.972 176.187 27.972C177.325 27.972 178.204 27.6169 178.82 26.9068C179.47 26.1637 179.795 25.1708 179.795 23.9412V17.0698H181.866L181.873 29.1753Z" fill="white"/>
</g>
</g>
</g>
</g>
<mask id="mask56_97_809" style="mask-type:luminance" maskUnits="userSpaceOnUse" x="0" y="0" width="191" height="41">
<path d="M190.923 0H0V40.939H190.923V0Z" fill="white"/>
</mask>
<g mask="url(#mask56_97_809)">
<mask id="mask57_97_809" style="mask-type:luminance" maskUnits="userSpaceOnUse" x="-1" y="-1" width="192" height="43">
<path d="M190.971 -0.0986328H-0.0744781V41.0902H190.971V-0.0986328Z" fill="white"/>
</mask>
<g mask="url(#mask57_97_809)">
<mask id="mask58_97_809" style="mask-type:luminance" maskUnits="userSpaceOnUse" x="-1" y="-1" width="192" height="43">
<path d="M190.971 -0.0986328H-0.0744781V41.0902H190.971V-0.0986328Z" fill="white"/>
</mask>
<g mask="url(#mask58_97_809)">
<mask id="mask59_97_809" style="mask-type:luminance" maskUnits="userSpaceOnUse" x="-1" y="-1" width="193" height="43">
<path d="M191.133 -0.25647H-0.236923V41.248H191.133V-0.25647Z" fill="white"/>
</mask>
<g mask="url(#mask59_97_809)">
<path d="M187.072 12.1053H184.926V29.5567H187.072V12.1053Z" fill="white"/>
</g>
</g>
</g>
<mask id="mask60_97_809" style="mask-type:luminance" maskUnits="userSpaceOnUse" x="-1" y="-1" width="192" height="43">
<path d="M190.971 -0.0986328H-0.0744781V41.0902H190.971V-0.0986328Z" fill="white"/>
</mask>
<g mask="url(#mask60_97_809)">
<mask id="mask61_97_809" style="mask-type:luminance" maskUnits="userSpaceOnUse" x="-1" y="-1" width="192" height="43">
<path d="M190.971 -0.0986328H-0.0744781V41.0902H190.971V-0.0986328Z" fill="white"/>
</mask>
<g mask="url(#mask61_97_809)">
<mask id="mask62_97_809" style="mask-type:luminance" maskUnits="userSpaceOnUse" x="-1" y="-1" width="193" height="43">
<path d="M191.133 -0.25647H-0.236923V41.248H191.133V-0.25647Z" fill="white"/>
</mask>
<g mask="url(#mask62_97_809)">
<path d="M187.072 12.1053H184.926V29.5567H187.072V12.1053Z" fill="white"/>
</g>
</g>
</g>
</g>
<mask id="mask63_97_809" style="mask-type:luminance" maskUnits="userSpaceOnUse" x="0" y="0" width="191" height="41">
<path d="M190.923 0H0V40.939H190.923V0Z" fill="white"/>
</mask>
<g mask="url(#mask63_97_809)">
<mask id="mask64_97_809" style="mask-type:luminance" maskUnits="userSpaceOnUse" x="-1" y="-1" width="192" height="43">
<path d="M190.971 -0.0986328H-0.0744781V41.0902H190.971V-0.0986328Z" fill="white"/>
</mask>
<g mask="url(#mask64_97_809)">
<mask id="mask65_97_809" style="mask-type:luminance" maskUnits="userSpaceOnUse" x="-1" y="-1" width="192" height="43">
<path d="M190.971 -0.0986328H-0.0744781V41.0902H190.971V-0.0986328Z" fill="white"/>
</mask>
<g mask="url(#mask65_97_809)">
<mask id="mask66_97_809" style="mask-type:luminance" maskUnits="userSpaceOnUse" x="-1" y="-1" width="193" height="43">
<path d="M191.133 -0.25647H-0.236923V41.248H191.133V-0.25647Z" fill="white"/>
</mask>
<g mask="url(#mask66_97_809)">
<path d="M187.539 13.1772H186.259H185.278L186.246 12.9273L187.322 12.6511L187.539 13.1772Z" fill="white"/>
</g>
</g>
</g>
<mask id="mask67_97_809" style="mask-type:luminance" maskUnits="userSpaceOnUse" x="-1" y="-1" width="192" height="43">
<path d="M190.971 -0.0986328H-0.0744781V41.0902H190.971V-0.0986328Z" fill="white"/>
</mask>
<g mask="url(#mask67_97_809)">
<mask id="mask68_97_809" style="mask-type:luminance" maskUnits="userSpaceOnUse" x="-1" y="-1" width="192" height="43">
<path d="M190.971 -0.0986328H-0.0744781V41.0902H190.971V-0.0986328Z" fill="white"/>
</mask>
<g mask="url(#mask68_97_809)">
<mask id="mask69_97_809" style="mask-type:luminance" maskUnits="userSpaceOnUse" x="-1" y="-1" width="193" height="43">
<path d="M191.133 -0.25647H-0.236923V41.248H191.133V-0.25647Z" fill="white"/>
</mask>
<g mask="url(#mask69_97_809)">
<path d="M187.539 13.1772H186.259H185.278L186.246 12.9273L187.322 12.6511L187.539 13.1772Z" fill="white"/>
</g>
</g>
</g>
</g>
<mask id="mask70_97_809" style="mask-type:luminance" maskUnits="userSpaceOnUse" x="0" y="0" width="191" height="41">
<path d="M190.923 0H0V40.939H190.923V0Z" fill="white"/>
</mask>
<g mask="url(#mask70_97_809)">
<mask id="mask71_97_809" style="mask-type:luminance" maskUnits="userSpaceOnUse" x="-1" y="-1" width="192" height="43">
<path d="M190.971 -0.0986328H-0.0744781V41.0902H190.971V-0.0986328Z" fill="white"/>
</mask>
<g mask="url(#mask71_97_809)">
<mask id="mask72_97_809" style="mask-type:luminance" maskUnits="userSpaceOnUse" x="-1" y="-1" width="192" height="43">
<path d="M190.971 -0.0986328H-0.0744781V41.0902H190.971V-0.0986328Z" fill="white"/>
</mask>
<g mask="url(#mask72_97_809)">
<mask id="mask73_97_809" style="mask-type:luminance" maskUnits="userSpaceOnUse" x="-1" y="-1" width="193" height="43">
<path d="M191.133 -0.25647H-0.236923V41.248H191.133V-0.25647Z" fill="white"/>
</mask>
<g mask="url(#mask73_97_809)">
<path d="M158.142 27.9852V29.5568H169.1V27.8208H160.93H160.808H159.827L161.452 27.1896L168.572 18.3718V17.0502H158.541V18.7795H165.648H166.488L165.168 19.3516" fill="white"/>
</g>
</g>
</g>
<mask id="mask74_97_809" style="mask-type:luminance" maskUnits="userSpaceOnUse" x="-1" y="-1" width="192" height="43">
<path d="M190.971 -0.0986328H-0.0744781V41.0902H190.971V-0.0986328Z" fill="white"/>
</mask>
<g mask="url(#mask74_97_809)">
<mask id="mask75_97_809" style="mask-type:luminance" maskUnits="userSpaceOnUse" x="-1" y="-1" width="192" height="43">
<path d="M190.971 -0.0986328H-0.0744781V41.0902H190.971V-0.0986328Z" fill="white"/>
</mask>
<g mask="url(#mask75_97_809)">
<mask id="mask76_97_809" style="mask-type:luminance" maskUnits="userSpaceOnUse" x="-1" y="-1" width="193" height="43">
<path d="M191.133 -0.25647H-0.236923V41.248H191.133V-0.25647Z" fill="white"/>
</mask>
<g mask="url(#mask76_97_809)">
<path d="M158.142 27.9852V29.5568H169.1V27.8208H160.93H160.808H159.827L161.452 27.1896L168.572 18.3718V17.0502H158.541V18.7795H165.648H166.488L165.168 19.3516" fill="white"/>
</g>
</g>
</g>
</g>
<mask id="mask77_97_809" style="mask-type:luminance" maskUnits="userSpaceOnUse" x="0" y="0" width="191" height="41">
<path d="M190.923 0H0V40.939H190.923V0Z" fill="white"/>
</mask>
<g mask="url(#mask77_97_809)">
<mask id="mask78_97_809" style="mask-type:luminance" maskUnits="userSpaceOnUse" x="-1" y="-1" width="192" height="43">
<path d="M190.971 -0.0986328H-0.0744781V41.0902H190.971V-0.0986328Z" fill="white"/>
</mask>
<g mask="url(#mask78_97_809)">
<mask id="mask79_97_809" style="mask-type:luminance" maskUnits="userSpaceOnUse" x="-1" y="-1" width="192" height="43">
<path d="M190.971 -0.0986328H-0.0744781V41.0902H190.971V-0.0986328Z" fill="white"/>
</mask>
<g mask="url(#mask79_97_809)">
<mask id="mask80_97_809" style="mask-type:luminance" maskUnits="userSpaceOnUse" x="-1" y="-1" width="193" height="43">
<path d="M191.133 -0.25647H-0.236923V41.248H191.133V-0.25647Z" fill="white"/>
</mask>
<g mask="url(#mask80_97_809)">
<path d="M107.233 29.5567H111.409L107.916 22.7839H101.953L98.2504 29.5567H102.258L104.552 24.8815H105.114L107.233 29.5567Z" fill="white"/>
</g>
</g>
</g>
<mask id="mask81_97_809" style="mask-type:luminance" maskUnits="userSpaceOnUse" x="-1" y="-1" width="192" height="43">
<path d="M190.971 -0.0986328H-0.0744781V41.0902H190.971V-0.0986328Z" fill="white"/>
</mask>
<g mask="url(#mask81_97_809)">
<mask id="mask82_97_809" style="mask-type:luminance" maskUnits="userSpaceOnUse" x="-1" y="-1" width="192" height="43">
<path d="M190.971 -0.0986328H-0.0744781V41.0902H190.971V-0.0986328Z" fill="white"/>
</mask>
<g mask="url(#mask82_97_809)">
<mask id="mask83_97_809" style="mask-type:luminance" maskUnits="userSpaceOnUse" x="-1" y="-1" width="193" height="43">
<path d="M191.133 -0.25647H-0.236923V41.248H191.133V-0.25647Z" fill="white"/>
</mask>
<g mask="url(#mask83_97_809)">
<path d="M107.233 29.5567H111.409L107.916 22.7839H101.953L98.2504 29.5567H102.258L104.552 24.8815H105.114L107.233 29.5567Z" fill="white"/>
</g>
</g>
</g>
</g>
<mask id="mask84_97_809" style="mask-type:luminance" maskUnits="userSpaceOnUse" x="0" y="0" width="191" height="41">
<path d="M190.923 0H0V40.939H190.923V0Z" fill="white"/>
</mask>
<g mask="url(#mask84_97_809)">
<mask id="mask85_97_809" style="mask-type:luminance" maskUnits="userSpaceOnUse" x="-1" y="-1" width="192" height="43">
<path d="M190.971 -0.0986328H-0.0744781V41.0902H190.971V-0.0986328Z" fill="white"/>
</mask>
<g mask="url(#mask85_97_809)">
<mask id="mask86_97_809" style="mask-type:luminance" maskUnits="userSpaceOnUse" x="-1" y="-1" width="192" height="43">
<path d="M190.971 -0.0986328H-0.0744781V41.0902H190.971V-0.0986328Z" fill="white"/>
</mask>
<g mask="url(#mask86_97_809)">
<mask id="mask87_97_809" style="mask-type:luminance" maskUnits="userSpaceOnUse" x="-1" y="-1" width="193" height="43">
<path d="M191.133 -0.25647H-0.236923V41.248H191.133V-0.25647Z" fill="white"/>
</mask>
<g mask="url(#mask87_97_809)">
<path d="M102.427 16.9712H98.2504L101.743 23.7374H107.707L111.409 16.9712H107.409L105.114 21.6398H104.552L102.427 16.9712Z" fill="white"/>
</g>
</g>
</g>
<mask id="mask88_97_809" style="mask-type:luminance" maskUnits="userSpaceOnUse" x="-1" y="-1" width="192" height="43">
<path d="M190.971 -0.0986328H-0.0744781V41.0902H190.971V-0.0986328Z" fill="white"/>
</mask>
<g mask="url(#mask88_97_809)">
<mask id="mask89_97_809" style="mask-type:luminance" maskUnits="userSpaceOnUse" x="-1" y="-1" width="192" height="43">
<path d="M190.971 -0.0986328H-0.0744781V41.0902H190.971V-0.0986328Z" fill="white"/>
</mask>
<g mask="url(#mask89_97_809)">
<mask id="mask90_97_809" style="mask-type:luminance" maskUnits="userSpaceOnUse" x="-1" y="-1" width="193" height="43">
<path d="M191.133 -0.25647H-0.236923V41.248H191.133V-0.25647Z" fill="white"/>
</mask>
<g mask="url(#mask90_97_809)">
<path d="M102.427 16.9712H98.2504L101.743 23.7374H107.707L111.409 16.9712H107.409L105.114 21.6398H104.552L102.427 16.9712Z" fill="white"/>
</g>
</g>
</g>
</g>
<mask id="mask91_97_809" style="mask-type:luminance" maskUnits="userSpaceOnUse" x="0" y="0" width="191" height="41">
<path d="M190.923 0H0V40.939H190.923V0Z" fill="white"/>
</mask>
<g mask="url(#mask91_97_809)">
<mask id="mask92_97_809" style="mask-type:luminance" maskUnits="userSpaceOnUse" x="-1" y="-1" width="192" height="43">
<path d="M190.971 -0.0986328H-0.0744781V41.0902H190.971V-0.0986328Z" fill="white"/>
</mask>
<g mask="url(#mask92_97_809)">
<mask id="mask93_97_809" style="mask-type:luminance" maskUnits="userSpaceOnUse" x="-1" y="-1" width="192" height="43">
<path d="M190.971 -0.0986328H-0.0744781V41.0902H190.971V-0.0986328Z" fill="white"/>
</mask>
<g mask="url(#mask93_97_809)">
<mask id="mask94_97_809" style="mask-type:luminance" maskUnits="userSpaceOnUse" x="-1" y="-1" width="193" height="43">
<path d="M191.133 -0.25647H-0.236923V41.248H191.133V-0.25647Z" fill="white"/>
</mask>
<g mask="url(#mask94_97_809)">
<path d="M31.7799 28.9584L22.7502 20.167H27.3666L30.8391 16.7938L29.5259 12.1383L29.1062 11.7307L27.3734 10.0408L23.9009 6.66754V3.29431L22.1681 4.98421L19.5215 7.5618C18.1135 8.92951 18.1135 11.152 19.5215 12.5263L25.6744 18.51H21.0512L7.62177 5.45107L6.11231 6.91741C4.06134 8.91636 4.06134 12.1515 6.11231 14.1439L14.0251 21.8503H13.2061H11.568H8.29866L5.84833 26.0455V26.6241V29.011V33.7849L3.39122 36.1718H5.84156H9.59829C11.5883 36.1718 13.2129 34.5936 13.2129 32.6604V23.5139H15.7377L30.2705 37.6512L31.7799 36.1849C33.8309 34.186 33.8309 30.9508 31.7799 28.9584Z" fill="white"/>
</g>
</g>
</g>
<mask id="mask95_97_809" style="mask-type:luminance" maskUnits="userSpaceOnUse" x="-1" y="-1" width="192" height="43">
<path d="M190.971 -0.0986328H-0.0744781V41.0902H190.971V-0.0986328Z" fill="white"/>
</mask>
<g mask="url(#mask95_97_809)">
<mask id="mask96_97_809" style="mask-type:luminance" maskUnits="userSpaceOnUse" x="-1" y="-1" width="192" height="43">
<path d="M190.971 -0.0986328H-0.0744781V41.0902H190.971V-0.0986328Z" fill="white"/>
</mask>
<g mask="url(#mask96_97_809)">
<mask id="mask97_97_809" style="mask-type:luminance" maskUnits="userSpaceOnUse" x="-1" y="-1" width="193" height="43">
<path d="M191.133 -0.25647H-0.236923V41.248H191.133V-0.25647Z" fill="white"/>
</mask>
<g mask="url(#mask97_97_809)">
<path d="M31.7799 28.9584L22.7502 20.167H27.3666L30.8391 16.7938L29.5259 12.1383L29.1062 11.7307L27.3734 10.0408L23.9009 6.66754V3.29431L22.1681 4.98421L19.5215 7.5618C18.1135 8.92951 18.1135 11.152 19.5215 12.5263L25.6744 18.51H21.0512L7.62177 5.45107L6.11231 6.91741C4.06134 8.91636 4.06134 12.1515 6.11231 14.1439L14.0251 21.8503H13.2061H11.568H8.29866L5.84833 26.0455V26.6241V29.011V33.7849L3.39122 36.1718H5.84156H9.59829C11.5883 36.1718 13.2129 34.5936 13.2129 32.6604V23.5139H15.7377L30.2705 37.6512L31.7799 36.1849C33.8309 34.186 33.8309 30.9508 31.7799 28.9584Z" fill="white"/>
</g>
</g>
</g>
</g>
</svg>
