<svg width="277" height="62" viewBox="0 0 277 62" fill="none" xmlns="http://www.w3.org/2000/svg">
<mask id="mask0_81_214" style="mask-type:luminance" maskUnits="userSpaceOnUse" x="0" y="0" width="277" height="62">
<path d="M277 0H0V61.1431H277V0Z" fill="white"/>
</mask>
<g mask="url(#mask0_81_214)">
<mask id="mask1_81_214" style="mask-type:luminance" maskUnits="userSpaceOnUse" x="-1" y="-1" width="279" height="63">
<path d="M277.069 -0.147308H-0.108032V61.369H277.069V-0.147308Z" fill="white"/>
</mask>
<g mask="url(#mask1_81_214)">
<mask id="mask2_81_214" style="mask-type:luminance" maskUnits="userSpaceOnUse" x="-1" y="-1" width="279" height="63">
<path d="M277.069 -0.147308H-0.108032V61.369H277.069V-0.147308Z" fill="white"/>
</mask>
<g mask="url(#mask2_81_214)">
<mask id="mask3_81_214" style="mask-type:luminance" maskUnits="userSpaceOnUse" x="-1" y="-1" width="279" height="63">
<path d="M277.304 -0.383026H-0.34375V61.6046H277.304V-0.383026Z" fill="white"/>
</mask>
<g mask="url(#mask3_81_214)">
<path d="M74.2634 35.9139H79.5469C79.3308 37.9665 78.2407 39.9404 76.257 41.8358C74.1848 43.7901 71.4841 44.782 68.1844 44.782C64.5017 44.782 61.4769 43.5446 59.12 41.0599C58.2263 40.0975 57.4309 38.9289 56.7532 37.5442C55.9479 35.8747 55.5551 33.9007 55.5551 31.6616C55.5551 27.7334 56.6845 24.4533 58.953 21.8116C61.1725 19.2091 64.2169 17.9128 68.0862 17.9128C71.3172 17.9128 73.8607 18.6591 75.6972 20.1421C77.7497 21.7919 78.9478 23.8641 79.3013 26.3389L74.0964 26.4469C73.2715 23.5793 71.327 22.1553 68.2532 22.1553C66.0141 22.1553 64.2169 23.049 62.8616 24.856C61.4966 26.6924 60.8091 29.0395 60.8091 31.8777C60.8091 34.4605 61.5948 36.5818 63.1759 38.2513C64.1678 39.2922 65.3364 39.9306 66.7015 40.1565C68.0666 40.3823 69.2254 40.3725 70.2075 40.0877C71.1895 39.8029 71.9064 39.4494 72.3876 39.0271C73.3992 38.0843 74.0277 37.0433 74.2634 35.9041" fill="#2754A6"/>
</g>
</g>
</g>
<mask id="mask4_81_214" style="mask-type:luminance" maskUnits="userSpaceOnUse" x="-1" y="-1" width="279" height="63">
<path d="M277.069 -0.147308H-0.108032V61.369H277.069V-0.147308Z" fill="white"/>
</mask>
<g mask="url(#mask4_81_214)">
<mask id="mask5_81_214" style="mask-type:luminance" maskUnits="userSpaceOnUse" x="-1" y="-1" width="279" height="63">
<path d="M277.069 -0.147308H-0.108032V61.369H277.069V-0.147308Z" fill="white"/>
</mask>
<g mask="url(#mask5_81_214)">
<mask id="mask6_81_214" style="mask-type:luminance" maskUnits="userSpaceOnUse" x="-1" y="-1" width="279" height="63">
<path d="M277.304 -0.383026H-0.34375V61.6046H277.304V-0.383026Z" fill="white"/>
</mask>
<g mask="url(#mask6_81_214)">
<path d="M74.2634 35.9139H79.5469C79.3308 37.9665 78.2407 39.9404 76.257 41.8358C74.1848 43.7901 71.4841 44.782 68.1844 44.782C64.5017 44.782 61.4769 43.5446 59.12 41.0599C58.2263 40.0975 57.4309 38.9289 56.7532 37.5442C55.9479 35.8747 55.5551 33.9007 55.5551 31.6616C55.5551 27.7334 56.6845 24.4533 58.953 21.8116C61.1725 19.2091 64.2169 17.9128 68.0862 17.9128C71.3172 17.9128 73.8607 18.6591 75.6972 20.1421C77.7497 21.7919 78.9478 23.8641 79.3013 26.3389L74.0964 26.4469C73.2715 23.5793 71.327 22.1553 68.2532 22.1553C66.0141 22.1553 64.2169 23.049 62.8616 24.856C61.4966 26.6924 60.8091 29.0395 60.8091 31.8777C60.8091 34.4605 61.5948 36.5818 63.1759 38.2513C64.1678 39.2922 65.3364 39.9306 66.7015 40.1565C68.0666 40.3823 69.2254 40.3725 70.2075 40.0877C71.1895 39.8029 71.9064 39.4494 72.3876 39.0271C73.3992 38.0843 74.0277 37.0433 74.2634 35.9041" fill="#2754A6"/>
</g>
</g>
</g>
</g>
<mask id="mask7_81_214" style="mask-type:luminance" maskUnits="userSpaceOnUse" x="0" y="0" width="277" height="62">
<path d="M277 0H0V61.1431H277V0Z" fill="white"/>
</mask>
<g mask="url(#mask7_81_214)">
<mask id="mask8_81_214" style="mask-type:luminance" maskUnits="userSpaceOnUse" x="-1" y="-1" width="279" height="63">
<path d="M277.069 -0.147308H-0.108032V61.369H277.069V-0.147308Z" fill="white"/>
</mask>
<g mask="url(#mask8_81_214)">
<mask id="mask9_81_214" style="mask-type:luminance" maskUnits="userSpaceOnUse" x="-1" y="-1" width="279" height="63">
<path d="M277.069 -0.147308H-0.108032V61.369H277.069V-0.147308Z" fill="white"/>
</mask>
<g mask="url(#mask9_81_214)">
<mask id="mask10_81_214" style="mask-type:luminance" maskUnits="userSpaceOnUse" x="-1" y="-1" width="279" height="63">
<path d="M277.304 -0.383026H-0.34375V61.6046H277.304V-0.383026Z" fill="white"/>
</mask>
<g mask="url(#mask10_81_214)">
<path d="M91.6557 25.0327C94.5528 25.0327 96.8803 25.9362 98.5989 27.7628C100.416 29.6779 101.319 32.1134 101.319 35.0694C101.319 37.8584 100.386 40.2056 98.5203 42.1304C96.7723 43.9276 94.4939 44.8311 91.6852 44.8311C88.8274 44.8311 86.5392 43.9374 84.8108 42.1304C82.9939 40.1957 82.0905 37.7897 82.0905 34.9319C82.0905 32.0741 82.9939 29.6779 84.8108 27.7334C86.5294 25.9362 88.8077 25.0327 91.6459 25.0327M95.0537 39.3708C95.9277 38.2512 96.3598 36.788 96.3598 34.9908C96.3598 32.1232 95.3876 30.1493 93.4431 29.0493C91.2138 28.4306 89.505 28.9119 88.2971 30.4832C87.4329 31.6125 87.0008 33.0954 87.0008 34.9122C87.0008 36.7291 87.4329 38.212 88.2971 39.3413C89.1613 40.4707 90.2808 41.0403 91.6754 41.0403C93.0404 41.0403 94.16 40.4805 95.034 39.361" fill="#2754A6"/>
</g>
</g>
</g>
<mask id="mask11_81_214" style="mask-type:luminance" maskUnits="userSpaceOnUse" x="-1" y="-1" width="279" height="63">
<path d="M277.069 -0.147308H-0.108032V61.369H277.069V-0.147308Z" fill="white"/>
</mask>
<g mask="url(#mask11_81_214)">
<mask id="mask12_81_214" style="mask-type:luminance" maskUnits="userSpaceOnUse" x="-1" y="-1" width="279" height="63">
<path d="M277.069 -0.147308H-0.108032V61.369H277.069V-0.147308Z" fill="white"/>
</mask>
<g mask="url(#mask12_81_214)">
<mask id="mask13_81_214" style="mask-type:luminance" maskUnits="userSpaceOnUse" x="-1" y="-1" width="279" height="63">
<path d="M277.304 -0.383026H-0.34375V61.6046H277.304V-0.383026Z" fill="white"/>
</mask>
<g mask="url(#mask13_81_214)">
<path d="M91.6557 25.0327C94.5528 25.0327 96.8803 25.9362 98.5989 27.7628C100.416 29.6779 101.319 32.1134 101.319 35.0694C101.319 37.8584 100.386 40.2056 98.5203 42.1304C96.7723 43.9276 94.4939 44.8311 91.6852 44.8311C88.8274 44.8311 86.5392 43.9374 84.8108 42.1304C82.9939 40.1957 82.0905 37.7897 82.0905 34.9319C82.0905 32.0741 82.9939 29.6779 84.8108 27.7334C86.5294 25.9362 88.8077 25.0327 91.6459 25.0327M95.0537 39.3708C95.9277 38.2512 96.3598 36.788 96.3598 34.9908C96.3598 32.1232 95.3876 30.1493 93.4431 29.0493C91.2138 28.4306 89.505 28.9119 88.2971 30.4832C87.4329 31.6125 87.0008 33.0954 87.0008 34.9122C87.0008 36.7291 87.4329 38.212 88.2971 39.3413C89.1613 40.4707 90.2808 41.0403 91.6754 41.0403C93.0404 41.0403 94.16 40.4805 95.034 39.361" fill="#2754A6"/>
</g>
</g>
</g>
</g>
<mask id="mask14_81_214" style="mask-type:luminance" maskUnits="userSpaceOnUse" x="0" y="0" width="277" height="62">
<path d="M277 0H0V61.1431H277V0Z" fill="white"/>
</mask>
<g mask="url(#mask14_81_214)">
<mask id="mask15_81_214" style="mask-type:luminance" maskUnits="userSpaceOnUse" x="-1" y="-1" width="279" height="63">
<path d="M277.069 -0.147308H-0.108032V61.369H277.069V-0.147308Z" fill="white"/>
</mask>
<g mask="url(#mask15_81_214)">
<mask id="mask16_81_214" style="mask-type:luminance" maskUnits="userSpaceOnUse" x="-1" y="-1" width="279" height="63">
<path d="M277.069 -0.147308H-0.108032V61.369H277.069V-0.147308Z" fill="white"/>
</mask>
<g mask="url(#mask16_81_214)">
<mask id="mask17_81_214" style="mask-type:luminance" maskUnits="userSpaceOnUse" x="-1" y="-1" width="279" height="63">
<path d="M277.304 -0.383026H-0.34375V61.6046H277.304V-0.383026Z" fill="white"/>
</mask>
<g mask="url(#mask17_81_214)">
<path d="M119.448 26.9772C120.558 28.1753 121.108 29.9037 121.108 32.1134V44.1436H116.178V32.9678C116.178 31.8384 115.883 30.9054 115.294 30.1689C114.705 29.4422 113.889 29.069 112.849 29.069C111.906 29.069 110.992 29.4716 110.128 30.2671C109.421 30.9251 109.068 32.0348 109.068 33.6061V44.1338H104.138V25.4648H109.068V27.7727C110.246 25.7889 112.132 24.797 114.734 24.797C116.531 24.797 118.093 25.5238 119.448 26.987" fill="#2754A6"/>
</g>
</g>
</g>
<mask id="mask18_81_214" style="mask-type:luminance" maskUnits="userSpaceOnUse" x="-1" y="-1" width="279" height="63">
<path d="M277.069 -0.147308H-0.108032V61.369H277.069V-0.147308Z" fill="white"/>
</mask>
<g mask="url(#mask18_81_214)">
<mask id="mask19_81_214" style="mask-type:luminance" maskUnits="userSpaceOnUse" x="-1" y="-1" width="279" height="63">
<path d="M277.069 -0.147308H-0.108032V61.369H277.069V-0.147308Z" fill="white"/>
</mask>
<g mask="url(#mask19_81_214)">
<mask id="mask20_81_214" style="mask-type:luminance" maskUnits="userSpaceOnUse" x="-1" y="-1" width="279" height="63">
<path d="M277.304 -0.383026H-0.34375V61.6046H277.304V-0.383026Z" fill="white"/>
</mask>
<g mask="url(#mask20_81_214)">
<path d="M119.448 26.9772C120.558 28.1753 121.108 29.9037 121.108 32.1134V44.1436H116.178V32.9678C116.178 31.8384 115.883 30.9054 115.294 30.1689C114.705 29.4422 113.889 29.069 112.849 29.069C111.906 29.069 110.992 29.4716 110.128 30.2671C109.421 30.9251 109.068 32.0348 109.068 33.6061V44.1338H104.138V25.4648H109.068V27.7727C110.246 25.7889 112.132 24.797 114.734 24.797C116.531 24.797 118.093 25.5238 119.448 26.987" fill="#2754A6"/>
</g>
</g>
</g>
</g>
<mask id="mask21_81_214" style="mask-type:luminance" maskUnits="userSpaceOnUse" x="0" y="0" width="277" height="62">
<path d="M277 0H0V61.1431H277V0Z" fill="white"/>
</mask>
<g mask="url(#mask21_81_214)">
<mask id="mask22_81_214" style="mask-type:luminance" maskUnits="userSpaceOnUse" x="-1" y="-1" width="279" height="63">
<path d="M277.069 -0.147308H-0.108032V61.369H277.069V-0.147308Z" fill="white"/>
</mask>
<g mask="url(#mask22_81_214)">
<mask id="mask23_81_214" style="mask-type:luminance" maskUnits="userSpaceOnUse" x="-1" y="-1" width="279" height="63">
<path d="M277.069 -0.147308H-0.108032V61.369H277.069V-0.147308Z" fill="white"/>
</mask>
<g mask="url(#mask23_81_214)">
<mask id="mask24_81_214" style="mask-type:luminance" maskUnits="userSpaceOnUse" x="-1" y="-1" width="279" height="63">
<path d="M277.304 -0.383026H-0.34375V61.6046H277.304V-0.383026Z" fill="white"/>
</mask>
<g mask="url(#mask24_81_214)">
<path d="M133.433 40.6573C135.436 40.6573 136.742 39.9011 137.361 38.3986L142.399 38.4673C141.809 40.3823 140.651 41.9242 138.932 43.0732C137.4 44.1142 135.534 44.6347 133.334 44.6347C130.457 44.6347 128.159 43.7606 126.46 42.0027C124.79 40.2547 123.946 37.937 123.946 35.0497C123.946 31.7893 124.839 29.2752 126.637 27.4977C128.571 25.6121 130.761 24.6595 133.226 24.6595C135.161 24.6595 136.85 25.1211 138.294 26.0344C139.973 27.0951 141.122 28.7449 141.76 30.9644C142.212 32.5259 142.428 33.9597 142.428 35.256C142.428 35.5113 142.418 35.7863 142.389 36.0711H128.866C128.866 37.8192 129.445 39.1057 130.594 39.9011C131.351 40.3922 132.293 40.6475 133.423 40.6475M133.256 28.4994C130.732 28.4994 129.298 29.8645 128.935 32.6142H137.439C137.321 31.2983 136.909 30.2671 136.202 29.56C135.495 28.8529 134.513 28.4994 133.256 28.4994Z" fill="#2754A6"/>
</g>
</g>
</g>
<mask id="mask25_81_214" style="mask-type:luminance" maskUnits="userSpaceOnUse" x="-1" y="-1" width="279" height="63">
<path d="M277.069 -0.147308H-0.108032V61.369H277.069V-0.147308Z" fill="white"/>
</mask>
<g mask="url(#mask25_81_214)">
<mask id="mask26_81_214" style="mask-type:luminance" maskUnits="userSpaceOnUse" x="-1" y="-1" width="279" height="63">
<path d="M277.069 -0.147308H-0.108032V61.369H277.069V-0.147308Z" fill="white"/>
</mask>
<g mask="url(#mask26_81_214)">
<mask id="mask27_81_214" style="mask-type:luminance" maskUnits="userSpaceOnUse" x="-1" y="-1" width="279" height="63">
<path d="M277.304 -0.383026H-0.34375V61.6046H277.304V-0.383026Z" fill="white"/>
</mask>
<g mask="url(#mask27_81_214)">
<path d="M133.433 40.6573C135.436 40.6573 136.742 39.9011 137.361 38.3986L142.399 38.4673C141.809 40.3823 140.651 41.9242 138.932 43.0732C137.4 44.1142 135.534 44.6347 133.334 44.6347C130.457 44.6347 128.159 43.7606 126.46 42.0027C124.79 40.2547 123.946 37.937 123.946 35.0497C123.946 31.7893 124.839 29.2752 126.637 27.4977C128.571 25.6121 130.761 24.6595 133.226 24.6595C135.161 24.6595 136.85 25.1211 138.294 26.0344C139.973 27.0951 141.122 28.7449 141.76 30.9644C142.212 32.5259 142.428 33.9597 142.428 35.256C142.428 35.5113 142.418 35.7863 142.389 36.0711H128.866C128.866 37.8192 129.445 39.1057 130.594 39.9011C131.351 40.3922 132.293 40.6475 133.423 40.6475M133.256 28.4994C130.732 28.4994 129.298 29.8645 128.935 32.6142H137.439C137.321 31.2983 136.909 30.2671 136.202 29.56C135.495 28.8529 134.513 28.4994 133.256 28.4994Z" fill="#2754A6"/>
</g>
</g>
</g>
</g>
<mask id="mask28_81_214" style="mask-type:luminance" maskUnits="userSpaceOnUse" x="0" y="0" width="277" height="62">
<path d="M277 0H0V61.1431H277V0Z" fill="white"/>
</mask>
<g mask="url(#mask28_81_214)">
<mask id="mask29_81_214" style="mask-type:luminance" maskUnits="userSpaceOnUse" x="-1" y="-1" width="279" height="63">
<path d="M277.069 -0.147308H-0.108032V61.369H277.069V-0.147308Z" fill="white"/>
</mask>
<g mask="url(#mask29_81_214)">
<mask id="mask30_81_214" style="mask-type:luminance" maskUnits="userSpaceOnUse" x="-1" y="-1" width="279" height="63">
<path d="M277.069 -0.147308H-0.108032V61.369H277.069V-0.147308Z" fill="white"/>
</mask>
<g mask="url(#mask30_81_214)">
<mask id="mask31_81_214" style="mask-type:luminance" maskUnits="userSpaceOnUse" x="-1" y="-1" width="279" height="63">
<path d="M277.304 -0.383026H-0.34375V61.6046H277.304V-0.383026Z" fill="white"/>
</mask>
<g mask="url(#mask31_81_214)">
<path d="M169.238 44.3204C167.422 44.3204 165.958 43.7901 164.849 42.7491C163.739 41.7081 163.189 40.3037 163.189 38.5851C163.189 35.2069 165.133 33.1936 169.032 32.5651L171.114 32.2116C171.163 32.2116 171.399 32.1821 171.841 32.1232C172.283 32.0643 172.558 32.0152 172.685 31.9857C172.813 31.9562 173.059 31.8973 173.412 31.8286C173.766 31.7598 174.011 31.6714 174.159 31.583C174.306 31.4947 174.473 31.367 174.689 31.2099C174.905 31.0527 175.042 30.876 175.111 30.6796C175.18 30.4831 175.219 30.2474 175.219 29.9921C175.219 28.7154 174.227 28.0771 172.244 28.0771C170.967 28.0771 170.073 28.2637 169.553 28.6467C169.032 29.0297 168.718 29.7073 168.6 30.6992H163.641C163.945 26.2799 166.773 24.0703 172.145 24.0703C177.576 24.0703 180.287 26.0246 180.287 29.9528V40.5885C180.287 41.4626 180.679 42.2384 181.455 42.9357V44.3597H175.858C175.455 43.8883 175.258 42.425 175.258 41.6197C173.442 43.4365 171.438 44.3498 169.238 44.3498M176.358 18.0503H178.696C178.558 21.0554 177.39 22.5481 175.19 22.5481C174.6 22.5481 173.933 22.4106 173.176 22.1258L170.554 21.2027C170.103 21.0554 169.739 20.9866 169.454 20.9866C169.003 20.9866 168.669 21.1143 168.443 21.3598C168.217 21.6053 168.06 22.0178 167.962 22.5776H165.674C165.742 21.2125 166.086 20.1322 166.695 19.3466C167.304 18.5609 168.119 18.1779 169.14 18.1779C169.612 18.1779 170.299 18.3351 171.193 18.6395L173.815 19.5233C174.149 19.6608 174.561 19.7394 175.052 19.7394C175.828 19.7394 176.27 19.1698 176.358 18.0404M175.229 35.8256V34.4801C174.758 34.6962 174.041 34.8926 173.068 35.0792L171.301 35.4033C170.22 35.6193 169.454 35.9238 169.022 36.3264C168.59 36.729 168.364 37.2888 168.364 38.0254C168.364 38.7325 168.61 39.2922 169.111 39.7047C169.612 40.1172 170.289 40.3234 171.163 40.3234C172.46 40.3234 173.461 39.9306 174.168 39.1547C174.875 38.3789 175.229 37.2692 175.229 35.8256Z" fill="#2754A6"/>
</g>
</g>
</g>
<mask id="mask32_81_214" style="mask-type:luminance" maskUnits="userSpaceOnUse" x="-1" y="-1" width="279" height="63">
<path d="M277.069 -0.147308H-0.108032V61.369H277.069V-0.147308Z" fill="white"/>
</mask>
<g mask="url(#mask32_81_214)">
<mask id="mask33_81_214" style="mask-type:luminance" maskUnits="userSpaceOnUse" x="-1" y="-1" width="279" height="63">
<path d="M277.069 -0.147308H-0.108032V61.369H277.069V-0.147308Z" fill="white"/>
</mask>
<g mask="url(#mask33_81_214)">
<mask id="mask34_81_214" style="mask-type:luminance" maskUnits="userSpaceOnUse" x="-1" y="-1" width="279" height="63">
<path d="M277.304 -0.383026H-0.34375V61.6046H277.304V-0.383026Z" fill="white"/>
</mask>
<g mask="url(#mask34_81_214)">
<path d="M169.238 44.3204C167.422 44.3204 165.958 43.7901 164.849 42.7491C163.739 41.7081 163.189 40.3037 163.189 38.5851C163.189 35.2069 165.133 33.1936 169.032 32.5651L171.114 32.2116C171.163 32.2116 171.399 32.1821 171.841 32.1232C172.283 32.0643 172.558 32.0152 172.685 31.9857C172.813 31.9562 173.059 31.8973 173.412 31.8286C173.766 31.7598 174.011 31.6714 174.159 31.583C174.306 31.4947 174.473 31.367 174.689 31.2099C174.905 31.0527 175.042 30.876 175.111 30.6796C175.18 30.4831 175.219 30.2474 175.219 29.9921C175.219 28.7154 174.227 28.0771 172.244 28.0771C170.967 28.0771 170.073 28.2637 169.553 28.6467C169.032 29.0297 168.718 29.7073 168.6 30.6992H163.641C163.945 26.2799 166.773 24.0703 172.145 24.0703C177.576 24.0703 180.287 26.0246 180.287 29.9528V40.5885C180.287 41.4626 180.679 42.2384 181.455 42.9357V44.3597H175.858C175.455 43.8883 175.258 42.425 175.258 41.6197C173.442 43.4365 171.438 44.3498 169.238 44.3498M176.358 18.0503H178.696C178.558 21.0554 177.39 22.5481 175.19 22.5481C174.6 22.5481 173.933 22.4106 173.176 22.1258L170.554 21.2027C170.103 21.0554 169.739 20.9866 169.454 20.9866C169.003 20.9866 168.669 21.1143 168.443 21.3598C168.217 21.6053 168.06 22.0178 167.962 22.5776H165.674C165.742 21.2125 166.086 20.1322 166.695 19.3466C167.304 18.5609 168.119 18.1779 169.14 18.1779C169.612 18.1779 170.299 18.3351 171.193 18.6395L173.815 19.5233C174.149 19.6608 174.561 19.7394 175.052 19.7394C175.828 19.7394 176.27 19.1698 176.358 18.0404M175.229 35.8256V34.4801C174.758 34.6962 174.041 34.8926 173.068 35.0792L171.301 35.4033C170.22 35.6193 169.454 35.9238 169.022 36.3264C168.59 36.729 168.364 37.2888 168.364 38.0254C168.364 38.7325 168.61 39.2922 169.111 39.7047C169.612 40.1172 170.289 40.3234 171.163 40.3234C172.46 40.3234 173.461 39.9306 174.168 39.1547C174.875 38.3789 175.229 37.2692 175.229 35.8256Z" fill="#2754A6"/>
</g>
</g>
</g>
</g>
<mask id="mask35_81_214" style="mask-type:luminance" maskUnits="userSpaceOnUse" x="0" y="0" width="277" height="62">
<path d="M277 0H0V61.1431H277V0Z" fill="white"/>
</mask>
<g mask="url(#mask35_81_214)">
<mask id="mask36_81_214" style="mask-type:luminance" maskUnits="userSpaceOnUse" x="-1" y="-1" width="279" height="63">
<path d="M277.069 -0.147308H-0.108032V61.369H277.069V-0.147308Z" fill="white"/>
</mask>
<g mask="url(#mask36_81_214)">
<mask id="mask37_81_214" style="mask-type:luminance" maskUnits="userSpaceOnUse" x="-1" y="-1" width="279" height="63">
<path d="M277.069 -0.147308H-0.108032V61.369H277.069V-0.147308Z" fill="white"/>
</mask>
<g mask="url(#mask37_81_214)">
<mask id="mask38_81_214" style="mask-type:luminance" maskUnits="userSpaceOnUse" x="-1" y="-1" width="279" height="63">
<path d="M277.304 -0.383026H-0.34375V61.6046H277.304V-0.383026Z" fill="white"/>
</mask>
<g mask="url(#mask38_81_214)">
<path d="M192.503 25.0327C195.401 25.0327 197.728 25.9362 199.447 27.7628C201.263 29.6779 202.167 32.1134 202.167 35.0694C202.167 37.8584 201.234 40.2056 199.368 42.1304C197.62 43.9276 195.342 44.8311 192.533 44.8311C189.675 44.8311 187.377 43.9374 185.659 42.1304C183.842 40.1957 182.938 37.7897 182.938 34.9319C182.938 32.0741 183.842 29.6779 185.659 27.7334C187.377 25.9362 189.656 25.0327 192.494 25.0327M195.901 39.3708C196.775 38.2512 197.208 36.788 197.208 34.9908C197.208 32.1232 196.235 30.1493 194.291 29.0493C192.062 28.4306 190.353 28.9119 189.145 30.4832C188.281 31.6125 187.849 33.0954 187.849 34.9122C187.849 36.7291 188.281 38.212 189.145 39.3413C190.009 40.4707 191.129 41.0403 192.523 41.0403C193.888 41.0403 195.008 40.4805 195.882 39.361" fill="#2754A6"/>
</g>
</g>
</g>
<mask id="mask39_81_214" style="mask-type:luminance" maskUnits="userSpaceOnUse" x="-1" y="-1" width="279" height="63">
<path d="M277.069 -0.147308H-0.108032V61.369H277.069V-0.147308Z" fill="white"/>
</mask>
<g mask="url(#mask39_81_214)">
<mask id="mask40_81_214" style="mask-type:luminance" maskUnits="userSpaceOnUse" x="-1" y="-1" width="279" height="63">
<path d="M277.069 -0.147308H-0.108032V61.369H277.069V-0.147308Z" fill="white"/>
</mask>
<g mask="url(#mask40_81_214)">
<mask id="mask41_81_214" style="mask-type:luminance" maskUnits="userSpaceOnUse" x="-1" y="-1" width="279" height="63">
<path d="M277.304 -0.383026H-0.34375V61.6046H277.304V-0.383026Z" fill="white"/>
</mask>
<g mask="url(#mask41_81_214)">
<path d="M192.503 25.0327C195.401 25.0327 197.728 25.9362 199.447 27.7628C201.263 29.6779 202.167 32.1134 202.167 35.0694C202.167 37.8584 201.234 40.2056 199.368 42.1304C197.62 43.9276 195.342 44.8311 192.533 44.8311C189.675 44.8311 187.377 43.9374 185.659 42.1304C183.842 40.1957 182.938 37.7897 182.938 34.9319C182.938 32.0741 183.842 29.6779 185.659 27.7334C187.377 25.9362 189.656 25.0327 192.494 25.0327M195.901 39.3708C196.775 38.2512 197.208 36.788 197.208 34.9908C197.208 32.1232 196.235 30.1493 194.291 29.0493C192.062 28.4306 190.353 28.9119 189.145 30.4832C188.281 31.6125 187.849 33.0954 187.849 34.9122C187.849 36.7291 188.281 38.212 189.145 39.3413C190.009 40.4707 191.129 41.0403 192.523 41.0403C193.888 41.0403 195.008 40.4805 195.882 39.361" fill="#2754A6"/>
</g>
</g>
</g>
</g>
<mask id="mask42_81_214" style="mask-type:luminance" maskUnits="userSpaceOnUse" x="0" y="0" width="277" height="62">
<path d="M277 0H0V61.1431H277V0Z" fill="white"/>
</mask>
<g mask="url(#mask42_81_214)">
<mask id="mask43_81_214" style="mask-type:luminance" maskUnits="userSpaceOnUse" x="-1" y="-1" width="279" height="63">
<path d="M277.069 -0.147308H-0.108032V61.369H277.069V-0.147308Z" fill="white"/>
</mask>
<g mask="url(#mask43_81_214)">
<mask id="mask44_81_214" style="mask-type:luminance" maskUnits="userSpaceOnUse" x="-1" y="-1" width="279" height="63">
<path d="M277.069 -0.147308H-0.108032V61.369H277.069V-0.147308Z" fill="white"/>
</mask>
<g mask="url(#mask44_81_214)">
<mask id="mask45_81_214" style="mask-type:luminance" maskUnits="userSpaceOnUse" x="-1" y="-1" width="279" height="63">
<path d="M277.304 -0.383026H-0.34375V61.6046H277.304V-0.383026Z" fill="white"/>
</mask>
<g mask="url(#mask45_81_214)">
<path d="M220.63 36.3755H210.711L207.991 44.1436H204.524L213.696 18.2958H217.909L226.934 44.1436H223.291L220.63 36.3755ZM219.707 33.6061L215.749 21.8312L211.536 33.6061H219.707Z" fill="#2754A6"/>
</g>
</g>
</g>
<mask id="mask46_81_214" style="mask-type:luminance" maskUnits="userSpaceOnUse" x="-1" y="-1" width="279" height="63">
<path d="M277.069 -0.147308H-0.108032V61.369H277.069V-0.147308Z" fill="white"/>
</mask>
<g mask="url(#mask46_81_214)">
<mask id="mask47_81_214" style="mask-type:luminance" maskUnits="userSpaceOnUse" x="-1" y="-1" width="279" height="63">
<path d="M277.069 -0.147308H-0.108032V61.369H277.069V-0.147308Z" fill="white"/>
</mask>
<g mask="url(#mask47_81_214)">
<mask id="mask48_81_214" style="mask-type:luminance" maskUnits="userSpaceOnUse" x="-1" y="-1" width="279" height="63">
<path d="M277.304 -0.383026H-0.34375V61.6046H277.304V-0.383026Z" fill="white"/>
</mask>
<g mask="url(#mask48_81_214)">
<path d="M220.63 36.3755H210.711L207.991 44.1436H204.524L213.696 18.2958H217.909L226.934 44.1436H223.291L220.63 36.3755ZM219.707 33.6061L215.749 21.8312L211.536 33.6061H219.707Z" fill="#2754A6"/>
</g>
</g>
</g>
</g>
<mask id="mask49_81_214" style="mask-type:luminance" maskUnits="userSpaceOnUse" x="0" y="0" width="277" height="62">
<path d="M277 0H0V61.1431H277V0Z" fill="white"/>
</mask>
<g mask="url(#mask49_81_214)">
<mask id="mask50_81_214" style="mask-type:luminance" maskUnits="userSpaceOnUse" x="-1" y="-1" width="279" height="63">
<path d="M277.069 -0.147308H-0.108032V61.369H277.069V-0.147308Z" fill="white"/>
</mask>
<g mask="url(#mask50_81_214)">
<mask id="mask51_81_214" style="mask-type:luminance" maskUnits="userSpaceOnUse" x="-1" y="-1" width="279" height="63">
<path d="M277.069 -0.147308H-0.108032V61.369H277.069V-0.147308Z" fill="white"/>
</mask>
<g mask="url(#mask51_81_214)">
<mask id="mask52_81_214" style="mask-type:luminance" maskUnits="userSpaceOnUse" x="-1" y="-1" width="279" height="63">
<path d="M277.304 -0.383026H-0.34375V61.6046H277.304V-0.383026Z" fill="white"/>
</mask>
<g mask="url(#mask52_81_214)">
<path d="M263.87 43.574H261.149V41.0501C260.256 42.2482 259.313 43.1124 258.341 43.6231C257.369 44.124 256.17 44.3793 254.746 44.3793C253.116 44.3793 251.643 43.7704 250.317 42.5428C249.208 41.5313 248.658 40.0484 248.658 38.1137V25.4943H251.663V38.0843C251.663 39.1449 252.016 40.0091 252.723 40.6769C253.548 41.4036 254.511 41.7768 255.621 41.7768C257.27 41.7768 258.547 41.2465 259.441 40.1859C260.383 39.0762 260.855 37.5932 260.855 35.7568V25.4943H263.86L263.87 43.574Z" fill="#2754A6"/>
</g>
</g>
</g>
<mask id="mask53_81_214" style="mask-type:luminance" maskUnits="userSpaceOnUse" x="-1" y="-1" width="279" height="63">
<path d="M277.069 -0.147308H-0.108032V61.369H277.069V-0.147308Z" fill="white"/>
</mask>
<g mask="url(#mask53_81_214)">
<mask id="mask54_81_214" style="mask-type:luminance" maskUnits="userSpaceOnUse" x="-1" y="-1" width="279" height="63">
<path d="M277.069 -0.147308H-0.108032V61.369H277.069V-0.147308Z" fill="white"/>
</mask>
<g mask="url(#mask54_81_214)">
<mask id="mask55_81_214" style="mask-type:luminance" maskUnits="userSpaceOnUse" x="-1" y="-1" width="279" height="63">
<path d="M277.304 -0.383026H-0.34375V61.6046H277.304V-0.383026Z" fill="white"/>
</mask>
<g mask="url(#mask55_81_214)">
<path d="M263.87 43.574H261.149V41.0501C260.256 42.2482 259.313 43.1124 258.341 43.6231C257.369 44.124 256.17 44.3793 254.746 44.3793C253.116 44.3793 251.643 43.7704 250.317 42.5428C249.208 41.5313 248.658 40.0484 248.658 38.1137V25.4943H251.663V38.0843C251.663 39.1449 252.016 40.0091 252.723 40.6769C253.548 41.4036 254.511 41.7768 255.621 41.7768C257.27 41.7768 258.547 41.2465 259.441 40.1859C260.383 39.0762 260.855 37.5932 260.855 35.7568V25.4943H263.86L263.87 43.574Z" fill="#2754A6"/>
</g>
</g>
</g>
</g>
<mask id="mask56_81_214" style="mask-type:luminance" maskUnits="userSpaceOnUse" x="0" y="0" width="277" height="62">
<path d="M277 0H0V61.1431H277V0Z" fill="white"/>
</mask>
<g mask="url(#mask56_81_214)">
<mask id="mask57_81_214" style="mask-type:luminance" maskUnits="userSpaceOnUse" x="-1" y="-1" width="279" height="63">
<path d="M277.069 -0.147308H-0.108032V61.369H277.069V-0.147308Z" fill="white"/>
</mask>
<g mask="url(#mask57_81_214)">
<mask id="mask58_81_214" style="mask-type:luminance" maskUnits="userSpaceOnUse" x="-1" y="-1" width="279" height="63">
<path d="M277.069 -0.147308H-0.108032V61.369H277.069V-0.147308Z" fill="white"/>
</mask>
<g mask="url(#mask58_81_214)">
<mask id="mask59_81_214" style="mask-type:luminance" maskUnits="userSpaceOnUse" x="-1" y="-1" width="279" height="63">
<path d="M277.304 -0.383026H-0.34375V61.6046H277.304V-0.383026Z" fill="white"/>
</mask>
<g mask="url(#mask59_81_214)">
<path d="M271.412 18.0797H268.299V44.1436H271.412V18.0797Z" fill="#2754A6"/>
</g>
</g>
</g>
<mask id="mask60_81_214" style="mask-type:luminance" maskUnits="userSpaceOnUse" x="-1" y="-1" width="279" height="63">
<path d="M277.069 -0.147308H-0.108032V61.369H277.069V-0.147308Z" fill="white"/>
</mask>
<g mask="url(#mask60_81_214)">
<mask id="mask61_81_214" style="mask-type:luminance" maskUnits="userSpaceOnUse" x="-1" y="-1" width="279" height="63">
<path d="M277.069 -0.147308H-0.108032V61.369H277.069V-0.147308Z" fill="white"/>
</mask>
<g mask="url(#mask61_81_214)">
<mask id="mask62_81_214" style="mask-type:luminance" maskUnits="userSpaceOnUse" x="-1" y="-1" width="279" height="63">
<path d="M277.304 -0.383026H-0.34375V61.6046H277.304V-0.383026Z" fill="white"/>
</mask>
<g mask="url(#mask62_81_214)">
<path d="M271.412 18.0797H268.299V44.1436H271.412V18.0797Z" fill="#2754A6"/>
</g>
</g>
</g>
</g>
<mask id="mask63_81_214" style="mask-type:luminance" maskUnits="userSpaceOnUse" x="0" y="0" width="277" height="62">
<path d="M277 0H0V61.1431H277V0Z" fill="white"/>
</mask>
<g mask="url(#mask63_81_214)">
<mask id="mask64_81_214" style="mask-type:luminance" maskUnits="userSpaceOnUse" x="-1" y="-1" width="279" height="63">
<path d="M277.069 -0.147308H-0.108032V61.369H277.069V-0.147308Z" fill="white"/>
</mask>
<g mask="url(#mask64_81_214)">
<mask id="mask65_81_214" style="mask-type:luminance" maskUnits="userSpaceOnUse" x="-1" y="-1" width="279" height="63">
<path d="M277.069 -0.147308H-0.108032V61.369H277.069V-0.147308Z" fill="white"/>
</mask>
<g mask="url(#mask65_81_214)">
<mask id="mask66_81_214" style="mask-type:luminance" maskUnits="userSpaceOnUse" x="-1" y="-1" width="279" height="63">
<path d="M277.304 -0.383026H-0.34375V61.6046H277.304V-0.383026Z" fill="white"/>
</mask>
<g mask="url(#mask66_81_214)">
<path d="M272.09 19.6805H270.234H268.81L270.214 19.3073L271.775 18.8948L272.09 19.6805Z" fill="#2754A6"/>
</g>
</g>
</g>
<mask id="mask67_81_214" style="mask-type:luminance" maskUnits="userSpaceOnUse" x="-1" y="-1" width="279" height="63">
<path d="M277.069 -0.147308H-0.108032V61.369H277.069V-0.147308Z" fill="white"/>
</mask>
<g mask="url(#mask67_81_214)">
<mask id="mask68_81_214" style="mask-type:luminance" maskUnits="userSpaceOnUse" x="-1" y="-1" width="279" height="63">
<path d="M277.069 -0.147308H-0.108032V61.369H277.069V-0.147308Z" fill="white"/>
</mask>
<g mask="url(#mask68_81_214)">
<mask id="mask69_81_214" style="mask-type:luminance" maskUnits="userSpaceOnUse" x="-1" y="-1" width="279" height="63">
<path d="M277.304 -0.383026H-0.34375V61.6046H277.304V-0.383026Z" fill="white"/>
</mask>
<g mask="url(#mask69_81_214)">
<path d="M272.09 19.6805H270.234H268.81L270.214 19.3073L271.775 18.8948L272.09 19.6805Z" fill="#2754A6"/>
</g>
</g>
</g>
</g>
<mask id="mask70_81_214" style="mask-type:luminance" maskUnits="userSpaceOnUse" x="0" y="0" width="277" height="62">
<path d="M277 0H0V61.1431H277V0Z" fill="white"/>
</mask>
<g mask="url(#mask70_81_214)">
<mask id="mask71_81_214" style="mask-type:luminance" maskUnits="userSpaceOnUse" x="-1" y="-1" width="279" height="63">
<path d="M277.069 -0.147308H-0.108032V61.369H277.069V-0.147308Z" fill="white"/>
</mask>
<g mask="url(#mask71_81_214)">
<mask id="mask72_81_214" style="mask-type:luminance" maskUnits="userSpaceOnUse" x="-1" y="-1" width="279" height="63">
<path d="M277.069 -0.147308H-0.108032V61.369H277.069V-0.147308Z" fill="white"/>
</mask>
<g mask="url(#mask72_81_214)">
<mask id="mask73_81_214" style="mask-type:luminance" maskUnits="userSpaceOnUse" x="-1" y="-1" width="279" height="63">
<path d="M277.304 -0.383026H-0.34375V61.6046H277.304V-0.383026Z" fill="white"/>
</mask>
<g mask="url(#mask73_81_214)">
<path d="M229.439 41.7965V44.1436H245.338V41.551H233.485H233.308H231.884L234.241 40.6082L244.572 27.4388V25.4648H230.018V28.0476H240.33H241.548L239.633 28.902" fill="#2754A6"/>
</g>
</g>
</g>
<mask id="mask74_81_214" style="mask-type:luminance" maskUnits="userSpaceOnUse" x="-1" y="-1" width="279" height="63">
<path d="M277.069 -0.147308H-0.108032V61.369H277.069V-0.147308Z" fill="white"/>
</mask>
<g mask="url(#mask74_81_214)">
<mask id="mask75_81_214" style="mask-type:luminance" maskUnits="userSpaceOnUse" x="-1" y="-1" width="279" height="63">
<path d="M277.069 -0.147308H-0.108032V61.369H277.069V-0.147308Z" fill="white"/>
</mask>
<g mask="url(#mask75_81_214)">
<mask id="mask76_81_214" style="mask-type:luminance" maskUnits="userSpaceOnUse" x="-1" y="-1" width="279" height="63">
<path d="M277.304 -0.383026H-0.34375V61.6046H277.304V-0.383026Z" fill="white"/>
</mask>
<g mask="url(#mask76_81_214)">
<path d="M229.439 41.7965V44.1436H245.338V41.551H233.485H233.308H231.884L234.241 40.6082L244.572 27.4388V25.4648H230.018V28.0476H240.33H241.548L239.633 28.902" fill="#2754A6"/>
</g>
</g>
</g>
</g>
<mask id="mask77_81_214" style="mask-type:luminance" maskUnits="userSpaceOnUse" x="0" y="0" width="277" height="62">
<path d="M277 0H0V61.1431H277V0Z" fill="white"/>
</mask>
<g mask="url(#mask77_81_214)">
<mask id="mask78_81_214" style="mask-type:luminance" maskUnits="userSpaceOnUse" x="-1" y="-1" width="279" height="63">
<path d="M277.069 -0.147308H-0.108032V61.369H277.069V-0.147308Z" fill="white"/>
</mask>
<g mask="url(#mask78_81_214)">
<mask id="mask79_81_214" style="mask-type:luminance" maskUnits="userSpaceOnUse" x="-1" y="-1" width="279" height="63">
<path d="M277.069 -0.147308H-0.108032V61.369H277.069V-0.147308Z" fill="white"/>
</mask>
<g mask="url(#mask79_81_214)">
<mask id="mask80_81_214" style="mask-type:luminance" maskUnits="userSpaceOnUse" x="-1" y="-1" width="279" height="63">
<path d="M277.304 -0.383026H-0.34375V61.6046H277.304V-0.383026Z" fill="white"/>
</mask>
<g mask="url(#mask80_81_214)">
<path d="M155.578 44.1436H161.637L156.57 34.0284H147.918L142.546 44.1436H148.36L151.689 37.1612H152.504L155.578 44.1436Z" fill="#2754A6"/>
</g>
</g>
</g>
<mask id="mask81_81_214" style="mask-type:luminance" maskUnits="userSpaceOnUse" x="-1" y="-1" width="279" height="63">
<path d="M277.069 -0.147308H-0.108032V61.369H277.069V-0.147308Z" fill="white"/>
</mask>
<g mask="url(#mask81_81_214)">
<mask id="mask82_81_214" style="mask-type:luminance" maskUnits="userSpaceOnUse" x="-1" y="-1" width="279" height="63">
<path d="M277.069 -0.147308H-0.108032V61.369H277.069V-0.147308Z" fill="white"/>
</mask>
<g mask="url(#mask82_81_214)">
<mask id="mask83_81_214" style="mask-type:luminance" maskUnits="userSpaceOnUse" x="-1" y="-1" width="279" height="63">
<path d="M277.304 -0.383026H-0.34375V61.6046H277.304V-0.383026Z" fill="white"/>
</mask>
<g mask="url(#mask83_81_214)">
<path d="M155.578 44.1436H161.637L156.57 34.0284H147.918L142.546 44.1436H148.36L151.689 37.1612H152.504L155.578 44.1436Z" fill="#2754A6"/>
</g>
</g>
</g>
</g>
<mask id="mask84_81_214" style="mask-type:luminance" maskUnits="userSpaceOnUse" x="0" y="0" width="277" height="62">
<path d="M277 0H0V61.1431H277V0Z" fill="white"/>
</mask>
<g mask="url(#mask84_81_214)">
<mask id="mask85_81_214" style="mask-type:luminance" maskUnits="userSpaceOnUse" x="-1" y="-1" width="279" height="63">
<path d="M277.069 -0.147308H-0.108032V61.369H277.069V-0.147308Z" fill="white"/>
</mask>
<g mask="url(#mask85_81_214)">
<mask id="mask86_81_214" style="mask-type:luminance" maskUnits="userSpaceOnUse" x="-1" y="-1" width="279" height="63">
<path d="M277.069 -0.147308H-0.108032V61.369H277.069V-0.147308Z" fill="white"/>
</mask>
<g mask="url(#mask86_81_214)">
<mask id="mask87_81_214" style="mask-type:luminance" maskUnits="userSpaceOnUse" x="-1" y="-1" width="279" height="63">
<path d="M277.304 -0.383026H-0.34375V61.6046H277.304V-0.383026Z" fill="white"/>
</mask>
<g mask="url(#mask87_81_214)">
<path d="M148.605 25.347H142.546L147.613 35.4524H156.265L161.637 25.347H155.833L152.504 32.3196H151.689L148.605 25.347Z" fill="#2754A6"/>
</g>
</g>
</g>
<mask id="mask88_81_214" style="mask-type:luminance" maskUnits="userSpaceOnUse" x="-1" y="-1" width="279" height="63">
<path d="M277.069 -0.147308H-0.108032V61.369H277.069V-0.147308Z" fill="white"/>
</mask>
<g mask="url(#mask88_81_214)">
<mask id="mask89_81_214" style="mask-type:luminance" maskUnits="userSpaceOnUse" x="-1" y="-1" width="279" height="63">
<path d="M277.069 -0.147308H-0.108032V61.369H277.069V-0.147308Z" fill="white"/>
</mask>
<g mask="url(#mask89_81_214)">
<mask id="mask90_81_214" style="mask-type:luminance" maskUnits="userSpaceOnUse" x="-1" y="-1" width="279" height="63">
<path d="M277.304 -0.383026H-0.34375V61.6046H277.304V-0.383026Z" fill="white"/>
</mask>
<g mask="url(#mask90_81_214)">
<path d="M148.605 25.347H142.546L147.613 35.4524H156.265L161.637 25.347H155.833L152.504 32.3196H151.689L148.605 25.347Z" fill="#2754A6"/>
</g>
</g>
</g>
</g>
<mask id="mask91_81_214" style="mask-type:luminance" maskUnits="userSpaceOnUse" x="0" y="0" width="277" height="62">
<path d="M277 0H0V61.1431H277V0Z" fill="white"/>
</mask>
<g mask="url(#mask91_81_214)">
<mask id="mask92_81_214" style="mask-type:luminance" maskUnits="userSpaceOnUse" x="-1" y="-1" width="279" height="63">
<path d="M277.069 -0.147308H-0.108032V61.369H277.069V-0.147308Z" fill="white"/>
</mask>
<g mask="url(#mask92_81_214)">
<mask id="mask93_81_214" style="mask-type:luminance" maskUnits="userSpaceOnUse" x="-1" y="-1" width="279" height="63">
<path d="M277.069 -0.147308H-0.108032V61.369H277.069V-0.147308Z" fill="white"/>
</mask>
<g mask="url(#mask93_81_214)">
<mask id="mask94_81_214" style="mask-type:luminance" maskUnits="userSpaceOnUse" x="-1" y="-1" width="279" height="63">
<path d="M277.304 -0.383026H-0.34375V61.6046H277.304V-0.383026Z" fill="white"/>
</mask>
<g mask="url(#mask94_81_214)">
<path d="M46.1077 43.2499L33.007 30.1198H39.7047L44.7427 25.0818L42.8375 18.1288L42.2286 17.5199L39.7145 14.996L34.6765 9.95807V4.9201L32.1625 7.444L28.3226 11.2937C26.2799 13.3364 26.2799 16.6557 28.3226 18.7082L37.2495 27.645H30.5421L11.058 8.14126L8.86799 10.3313C5.89234 13.3167 5.89234 18.1485 8.86799 21.1241L20.3483 32.6339H19.16H16.7834H12.04L8.48498 38.8994V39.7636V43.3285V50.4582L4.9201 54.0231H8.47516H13.9256C16.8129 54.0231 19.1698 51.6662 19.1698 48.7789V35.1185H22.8329L43.9177 56.2328L46.1077 54.0428C49.0834 51.0573 49.0834 46.2256 46.1077 43.2499Z" fill="#2754A6"/>
</g>
</g>
</g>
<mask id="mask95_81_214" style="mask-type:luminance" maskUnits="userSpaceOnUse" x="-1" y="-1" width="279" height="63">
<path d="M277.069 -0.147308H-0.108032V61.369H277.069V-0.147308Z" fill="white"/>
</mask>
<g mask="url(#mask95_81_214)">
<mask id="mask96_81_214" style="mask-type:luminance" maskUnits="userSpaceOnUse" x="-1" y="-1" width="279" height="63">
<path d="M277.069 -0.147308H-0.108032V61.369H277.069V-0.147308Z" fill="white"/>
</mask>
<g mask="url(#mask96_81_214)">
<mask id="mask97_81_214" style="mask-type:luminance" maskUnits="userSpaceOnUse" x="-1" y="-1" width="279" height="63">
<path d="M277.304 -0.383026H-0.34375V61.6046H277.304V-0.383026Z" fill="white"/>
</mask>
<g mask="url(#mask97_81_214)">
<path d="M46.1077 43.2499L33.007 30.1198H39.7047L44.7427 25.0818L42.8375 18.1288L42.2286 17.5199L39.7145 14.996L34.6765 9.95807V4.9201L32.1625 7.444L28.3226 11.2937C26.2799 13.3364 26.2799 16.6557 28.3226 18.7082L37.2495 27.645H30.5421L11.058 8.14126L8.86799 10.3313C5.89234 13.3167 5.89234 18.1485 8.86799 21.1241L20.3483 32.6339H19.16H16.7834H12.04L8.48498 38.8994V39.7636V43.3285V50.4582L4.9201 54.0231H8.47516H13.9256C16.8129 54.0231 19.1698 51.6662 19.1698 48.7789V35.1185H22.8329L43.9177 56.2328L46.1077 54.0428C49.0834 51.0573 49.0834 46.2256 46.1077 43.2499Z" fill="#2754A6"/>
</g>
</g>
</g>
</g>
</svg>
