<svg width="48" height="46" viewBox="0 0 48 46" fill="none" xmlns="http://www.w3.org/2000/svg">
<g clip-path="url(#clip0_97_703)">
<path d="M22.9723 0C23.9406 0 24.9108 0 25.8791 0C26.4656 0.0691196 27.052 0.125162 27.6365 0.209227C33.9295 1.10591 39.1061 3.90245 43.0358 8.70159C46.8719 13.3868 48.4676 18.7538 47.8831 24.6794C47.4856 28.7164 46.0166 32.4003 43.4663 35.6395C38.9775 41.3428 32.9767 44.4289 25.5421 44.8399C21.3766 45.0697 17.4119 44.2197 13.6848 42.4002C13.4003 42.2601 13.1529 42.2377 12.8431 42.3329C8.9368 43.5341 5.02464 44.7166 1.12027 45.9215C0.664367 46.0616 0.305881 46.0392 0 45.6731C0 45.5236 0 45.3742 0 45.2229C0.060397 45.0884 0.132484 44.9557 0.181191 44.8175C1.4242 41.3073 2.66136 37.7972 3.91411 34.2908C4.04075 33.9358 4.02517 33.6556 3.82839 33.325C2.35158 30.8553 1.43979 28.1933 1.05597 25.3781C0.520193 21.457 0.962455 17.6236 2.61071 13.9883C6.01047 6.49537 11.9391 1.96337 20.2934 0.362411C21.1779 0.194282 22.08 0.11769 22.9723 0ZM7.38791 39.0712C7.60028 39.0152 7.73276 38.9853 7.86135 38.9461C9.64598 38.4043 11.4326 37.87 13.2113 37.3115C13.677 37.1658 14.0589 37.1882 14.4875 37.4479C16.8137 38.8639 19.3543 39.7232 22.0916 40.0557C25.4719 40.4648 28.7295 40.0146 31.8487 38.7256C35.0146 37.4161 37.6176 35.4079 39.6321 32.7178C41.5687 30.1324 42.7143 27.2499 43.0182 24.0835C43.402 20.0895 42.463 16.3739 40.2088 12.9945C37.637 9.13873 34.023 6.59438 29.4347 5.34275C25.9493 4.39189 22.4579 4.44607 18.9978 5.45484C15.6194 6.4412 12.7438 8.20468 10.4039 10.749C7.75029 13.6352 6.19751 16.9997 5.83902 20.8255C5.44157 25.0792 6.51703 28.9947 9.07708 32.5067C9.38686 32.9308 9.44141 33.3194 9.26411 33.8032C8.63287 35.5237 8.03279 37.2554 7.38791 39.0712Z" fill="white"/>
<path d="M30.8629 33.2185C29.5108 33.2148 28.2112 32.8505 26.9098 32.4731C21.6981 30.9637 18.01 27.618 14.9863 23.4484C13.9244 21.9838 13.0029 20.4613 12.7204 18.6735C12.4398 16.9007 12.736 15.2231 13.7744 13.6894C14.4622 12.6751 15.4948 12.2585 16.6696 12.0642C17.0222 12.0063 17.3807 11.9671 17.7353 11.926C18.4679 11.8382 19.066 12.0978 19.3621 12.7292C20.0986 14.2947 20.7922 15.8807 21.4663 17.4723C21.7546 18.1523 21.3591 18.7333 20.9772 19.262C20.6421 19.7271 20.2135 20.1325 19.857 20.5864C19.7732 20.6929 19.7303 20.9395 19.8005 21.0348C21.6942 23.6072 23.9718 25.7555 27.0384 27.0314C27.3696 27.1696 27.5644 27.1267 27.7846 26.8502C28.2561 26.2543 28.7665 25.6864 29.2555 25.1035C29.916 24.3133 30.444 24.1788 31.422 24.5935C32.2773 24.9559 33.1248 25.337 33.9704 25.7237C34.6328 26.0263 35.2816 26.3514 35.9401 26.6615C36.4564 26.9043 36.6785 27.2929 36.7058 27.844C36.8733 31.2421 33.9762 32.9551 31.4941 33.1793C31.2934 33.198 31.0889 33.2054 30.8629 33.2185Z" fill="white"/>
</g>
<defs>
<clipPath id="clip0_97_703">
<rect width="48" height="46" fill="white"/>
</clipPath>
</defs>
</svg>
